<svg xmlns="http://www.w3.org/2000/svg" xmlns:xlink="http://www.w3.org/1999/xlink" xmlns:inkscape="http://www.inkscape.org/namespaces/inkscape" version="1.1" width="429" height="316" viewBox="0 0 429 316">
<defs>
<path id="font_1_1" d="M.5239868 .6603241C.5279999 .67433169 .5279999 .67633059 .5279999 .68032839 .5279999 .68933108 .5219879 .69433596 .5130005 .69433596 .49899293 .69433596 .41099549 .6863251 .3909912 .6843262 .3809967 .68333438 .36999513 .6823273 .36999513 .665329 .36999513 .6523285 .3809967 .6523285 .39698792 .6523285 .44400025 .6523285 .44400025 .6453247 .44400025 .6363373 .44400025 .6293335 .43499757 .5943451 .42999269 .573349L.41099549 .4963684C.40098573 .45837403 .3909912 .41937257 .38198854 .3803711 .36299134 .41638185 .33198548 .4423828 .2869873 .4423828 .17098999 .4423828 .041992189 .30433656 .041992189 .1512909 .041992189 .041259767 .11199951-.0107421879 .1789856-.0107421879 .24398804-.0107421879 .29699708 .043258668 .31298829 .06227112 .32398988 .007247925 .37399293-.0107421879 .4059906-.0107421879 .43499757-.0107421879 .45999146 .002243042 .48199464 .044265748 .5 .07727051 .5139923 .13928223 .5139923 .14329529 .5139923 .14828491 .5109863 .1552887 .5009918 .1552887 .4889984 .1552887 .48799134 .15029907 .48399354 .13128662 .46199037 .044265748 .43998719 .014251709 .40899659 .014251709 .38398744 .014251709 .37799073 .038253786 .37799073 .060272218 .37799073 .073272708 .3829956 .10127258 .38398744 .104278568L.5239868 .6603241M.31698609 .121276859C.31298829 .105285648 .31199647 .103271488 .29599 .08326721 .2599945 .040252687 .21899414 .014251709 .18199158 .014251709 .1329956 .014251709 .115997318 .06526184 .115997318 .10827637 .115997318 .15730286 .14498902 .27233888 .16899109 .32034303 .20098877 .3803711 .24699402 .41737367 .2869873 .41737367 .35398866 .41737367 .36898805 .3363495 .36898805 .3313446 .36898805 .32635499 .36698915 .32034303 .3659973 .3163452L.31698609 .121276859Z"/>
<path id="font_2_1" d="M.21998596 .21809387C.21998596 .29112245 .24699402 .4071808 .34399415 .41018678 .33299256 .39918519 .32798768 .3821869 .32798768 .36616517 .32798768 .32214356 .36299134 .30213929 .3909912 .30213929 .4229889 .30213929 .45498658 .32414247 .45498658 .36616517 .45498658 .41719056 .40299989 .4501953 .34399415 .4501953 .27398683 .4501953 .23098755 .39918519 .20899964 .341156H.20799256V.4501953L.040985109 .44218446V.39318849C.100997928 .39318849 .10899353 .39318849 .10899353 .35417176V.04899597H.040985109V0C.114990238 .0029907227 .12098694 .0029907227 .16899109 .0029907227 .19400025 .0029907227 .2519989 .0029907227 .30499269 0V.04899597H.21998596V.21809387Z"/>
<path id="font_3_96" d="M.49899293 .3773651C.49899293 .41937257 .45199586 .4423828 .397995 .4423828 .33799745 .4423828 .2979889 .40637208 .27398683 .37236024 .2630005 .41737367 .22799683 .4423828 .18699646 .4423828 .1539917 .4423828 .1289978 .42237855 .11099243 .3843689 .09498596 .34934999 .08099365 .29333497 .08099365 .28933717 .08099365 .27633668 .09199524 .27633668 .09799194 .27633668 .11299133 .27633668 .11299133 .28033448 .117996219 .30033876 .13798523 .38035584 .15699768 .41737367 .18499756 .41737367 .20098877 .41737367 .21099854 .40837098 .21099854 .3773651 .21099854 .35635377 .20498657 .33035279 .20399475 .32633973L.13198853 .038269044C.12799073 .024261475 .12799073 .022262574 .12799073 .01725769 .12799073-.00074768069 .14199829-.0107421879 .15699768-.0107421879 .17098999-.0107421879 .18998719-.0047454836 .19799805 .026260376L.2630005 .28733827C.2649994 .29434205 .30899049 .41737367 .3959961 .41737367 .4019928 .41737367 .42999269 .41737367 .45098878 .40237428 .42099 .3923645 .41600038 .36836244 .41600038 .35635377 .41600038 .3363495 .43099977 .32434083 .44999696 .32434083 .47599793 .32434083 .49899293 .34635926 .49899293 .3773651Z"/>
<path id="font_3_50" d="M.48199464 .10134888C.47799684 .114364627 .46899415 .12036133 .46299745 .12036133 .45799256 .12036133 .45599366 .11836243 .44898988 .10935974 .3919983 .03627014 .31098939 .014251709 .2649994 .014251709 .19699097 .014251709 .18699646 .09033203 .18699646 .12536621 .18699646 .13337708 .18699646 .16542053 .20298767 .22949219H.23199463C.30699159 .22949219 .35899354 .2374878 .394989 .2514801 .46499635 .27946473 .47399903 .33543397 .47399903 .3564148 .47399903 .40138246 .43598939 .4423828 .36799623 .4423828 .2659912 .4423828 .115997318 .3484192 .115997318 .16741944 .115997318 .05529785 .1789856-.0107421879 .2639923-.0107421879 .35598756-.0107421879 .44400025 .039276124 .48199464 .10134888M.43299867 .35742188C.43299867 .25448609 .27398683 .25448609 .20899964 .25448609 .25498963 .41438294 .35398866 .41737367 .36799623 .41737367 .4119873 .41737367 .43299867 .38739015 .43299867 .35742188Z"/>
<path id="font_3_84" d="M.5219879 .28433229C.5219879 .38136292 .46798707 .4423828 .3959961 .4423828 .34298707 .4423828 .30499269 .40538026 .272995 .37435914 .25898744 .42938233 .21499634 .4423828 .18699646 .4423828 .1539917 .4423828 .1289978 .42237855 .11099243 .3843689 .09498596 .34934999 .08099365 .29333497 .08099365 .28933717 .08099365 .27633668 .09199524 .27633668 .09799194 .27633668 .11299133 .27633668 .11299133 .28033448 .117996219 .30033876 .13798523 .3803711 .15699768 .41737367 .18499756 .41737367 .20098877 .41737367 .21099854 .40837098 .21099854 .3773651 .21099854 .35635377 .20498657 .33035279 .20399475 .32635499L.09098816-.12701416C.08299255-.15908814 .07598877-.16308594 .036987306-.16308594 .027999878-.16308594 .015991211-.16308594 .015991211-.18109131 .015991211-.18609619 .017990113-.1940918 .0289917-.1940918 .054992677-.1940918 .085998538-.19110108 .11399841-.19110108 .14698792-.19110108 .18099976-.1940918 .21199036-.1940918 .21699524-.1940918 .22999573-.1940918 .22999573-.17608643 .22999573-.16308594 .21899414-.16308594 .20298767-.16308594 .1559906-.16308594 .1559906-.15608216 .1559906-.14706421 .1559906-.1360321 .19799805 .024246216 .20298767 .044265748 .22399903 .0062561037 .2539978-.0107421879 .2889862-.0107421879 .40299989-.0107421879 .5219879 .1382904 .5219879 .28433229M.40098573 .11628723C.37599183 .06227112 .33099366 .014251709 .2889862 .014251709 .2669983 .014251709 .25 .025253296 .23699951 .04626465 .22200012 .07026672 .21899414 .106277469 .21899414 .106277469 .21899414 .106277469 .21998596 .11628723 .22099304 .119277957L.2679901 .30534364C.27598573 .33535768 .29699708 .35835267 .31900025 .379364 .35099793 .41036988 .3789978 .41737367 .3939972 .41737367 .44898988 .41737367 .45199586 .34135438 .45199586 .32835389 .45199586 .27633668 .42099 .16029358 .40098573 .11628723Z"/>
<path id="font_3_98" d="M.40299989 .15620423C.40299989 .18418885 .3929901 .21018982 .37298585 .23118592 .34700013 .25717164 .32398988 .2621765 .2789917 .27116395 .24899292 .27816773 .21299744 .28515626 .21299744 .32815553 .21299744 .3461609 .22898865 .41737367 .31599427 .41737367 .34599305 .41737367 .38198854 .4053192 .3919983 .37016297 .35499574 .36315919 .35499574 .33015443 .35499574 .33015443 .35499574 .32115174 .36099244 .30215455 .3849945 .30215455 .40699769 .30215455 .42799378 .31915284 .42799378 .3561554 .42799378 .40130616 .3880005 .4423828 .31599427 .4423828 .19898987 .4423828 .15499878 .3491516 .15499878 .29415895 .15499878 .21618653 .22200012 .20219422 .2519989 .19519043 .29899598 .18519593 .34399415 .17520142 .34399415 .12321472 .34399415 .09422302 .31999208 .014251709 .21099854 .014251709 .18499756 .014251709 .1289978 .021255494 .11299133 .068237308 .1599884 .07322693 .1599884 .115219119 .1599884 .115219119 .1599884 .14221192 .13699341 .14820862 .12599182 .14820862 .11999512 .14820862 .07598877 .14520264 .07598877 .08622742 .07598877 .03024292 .1289978-.0107421879 .21099854-.0107421879 .3639984-.0107421879 .40299989 .11122131 .40299989 .15620423Z"/>
<path id="font_3_77" d="M.6029968 .14329529C.6029968 .1552887 .58999636 .1552887 .58599856 .1552887 .57199099 .1552887 .57099917 .15229798 .5649872 .13128662 .5549927 .09527588 .5269928 .014251709 .47299195 .014251709 .46499635 .014251709 .45199586 .01524353 .45199586 .042251588 .45199586 .06626892 .46398927 .09828186 .47200013 .120285037 .48999024 .16830445 .5309906 .2793274 .5309906 .3363495 .5309906 .4033661 .4909973 .4423828 .42099 .4423828 .34899903 .4423828 .30099488 .39837647 .2749939 .36636354 .2659912 .41638185 .22898865 .4423828 .18699646 .4423828 .1539917 .4423828 .1289978 .42237855 .11099243 .3843689 .09498596 .34934999 .08099365 .29333497 .08099365 .28933717 .08099365 .27633668 .09199524 .27633668 .09799194 .27633668 .11299133 .27633668 .11299133 .28033448 .117996219 .30033876 .13798523 .3803711 .15699768 .41737367 .18499756 .41737367 .20098877 .41737367 .21099854 .40837098 .21099854 .3773651 .21099854 .35635377 .20498657 .33035279 .20399475 .32635499L.13198853 .038253786C.12799073 .024246216 .12799073 .022247315 .12799073 .01725769 .12799073-.00074768069 .14199829-.0107421879 .15699768-.0107421879 .18899536-.0107421879 .19400025 .009246826 .20698548 .06427002L.22898865 .15029907 .26098634 .28033448C.2649994 .29333497 .29299928 .34535218 .31698609 .3693695 .33198548 .3843689 .36499024 .41737367 .4189911 .41737367 .45700074 .41737367 .46598817 .3843689 .46598817 .35235597 .46598817 .29434205 .4229889 .17630005 .4059906 .13128662 .3939972 .09828186 .3919983 .0922699 .3919983 .0712738 .3919983 .01725769 .42999269-.0107421879 .47099305-.0107421879 .56599429-.0107421879 .6029968 .1362915 .6029968 .14329529Z"/>
<path id="font_3_105" d="M.3659973 .14405823C.3659973 .1550293 .35299684 .1550293 .34999085 .1550293 .33699037 .1550293 .33599855 .15203858 .32998658 .13806153 .3019867 .06816101 .2599945 .014251709 .21199036 .014251709 .20098877 .014251709 .18399048 .01625061 .18399048 .05519104 .18399048 .06417847 .18699646 .086135867 .19198609 .10610962L.2649994 .3996582H.35099793C.36799623 .3996582 .3789978 .3996582 .3789978 .41766358 .3789978 .43066407 .36898805 .43066407 .35299684 .43066407H.272995L.30999757 .5778961C.31399537 .59191897 .31399537 .59391787 .31399537 .59791567 .31399537 .61494448 .30099488 .62597659 .2849884 .62597659 .2579956 .62597659 .24699402 .6039276 .24299622 .5868988L.20399475 .43066407H.11898804C.101989749 .43066407 .09098816 .43066407 .09098816 .4126587 .09098816 .3996582 .100997928 .3996582 .116989139 .3996582H.19599915L.125 .114089969C.125 .114089969 .11999512 .09512329 .11999512 .08015442 .11999512 .035217287 .15098572-.0107421879 .20999146-.0107421879 .31098939-.0107421879 .3659973 .13406372 .3659973 .14405823Z"/>
<path id="font_3_102" d="M.6279907 .7279968C.6279907 .7429962 .6159973 .75 .6069946 .75 .59399417 .75 .58999636 .74198916 .58399966 .7319946L.0289917-.21000672C.020996094-.22200012 .020996094-.22401428 .020996094-.22801209 .020996094-.24301148 .032989503-.25 .041992189-.25 .054992677-.25 .05899048-.24301148 .06498718-.23200989L.6199951 .70999148C.6279907 .7220001 .6279907 .723999 .6279907 .7279968Z"/>
<path id="font_1_2" d="M.39698792 .37402345C.35398866 .37001039 .34999085 .3360138 .34999085 .32901 .34999085 .31201173 .36299134 .29901124 .38198854 .29901124 .4099884 .29901124 .42900086 .32202149 .42900086 .355011 .42900086 .40527345 .37998963 .4423828 .30599977 .4423828 .17199707 .4423828 .13398743 .3420105 .13398743 .2960205 .13398743 .25810243 .15299988 .23814392 .1659851 .22616577 .18598938 .2071991 .21299744 .20121765 .24899292 .19422913 .2939911 .1852417 .3039856 .18325806 .32199098 .17027283 .33799745 .15830994 .34700013 .14231873 .34700013 .12130737 .34700013 .0953064 .32299806 .014251709 .20199585 .014251709 .1789856 .014251709 .10899353 .01725769 .08699036 .063308719 .13699341 .063308719 .14698792 .10331726 .14698792 .11730957 .14698792 .14730835 .11999512 .15332031 .10899353 .15332031 .09098816 .15332031 .052993776 .13931275 .052993776 .08731079 .052993776 .025268555 .115997318-.0107421879 .20098877-.0107421879 .36898805-.0107421879 .4059906 .11231995 .4059906 .15530396 .4059906 .1932373 .3849945 .21717835 .37298585 .2291565 .34700013 .25610353 .31498719 .26208497 .27999879 .2690735 .2679901 .2720642 .24598694 .276062 .24299622 .27705384 .20999146 .28404237 .19198609 .3040161 .19198609 .32901 .19198609 .3400116 .19898987 .37200929 .22698975 .3941803 .25498963 .41636659 .29299928 .41737367 .30599977 .41737367 .34098817 .41737367 .38198854 .40628053 .39698792 .37402345Z"/>
<path id="font_4_1" d="M.45700074 .69281008C.44799806 .7108154 .44299317 .7158203 .4269867 .7158203 .41299439 .7158203 .40699769 .7108154 .3999939 .69680789L.054992677 .023986817C.050994874 .015991211 .04899597 .010986328 .04899597 .008987427 .04899597 0 .055999757 0 .07199097 0H.7829895C.798996 0 .80599978 0 .80599978 .008987427 .80599978 .009994507 .80599978 .011993408 .8009949 .021987915L.45700074 .69281008M.3939972 .61683657 .6719971 .07699585H.116989139L.3939972 .61683657Z"/>
<path id="font_1_3" d="M.21299744 .3996582H.30799867C.32598878 .3996582 .33799745 .3996582 .33799745 .41766358 .33799745 .43066407 .32798768 .43066407 .30999757 .43066407H.22099304L.2619934 .59646609C.2619934 .6124573 .24899292 .62545779 .23098755 .62545779 .19898987 .62545779 .19099427 .59646609 .18899536 .5864868L.14898682 .43066407H.054992677C.035995485 .43066407 .023986817 .43066407 .023986817 .4126587 .023986817 .3996582 .034988405 .3996582 .052993776 .3996582H.14199829L.07398987 .12808228C.06599426 .09811401 .06599426 .09613037 .06599426 .08215332 .06599426 .023239136 .11099243-.0107421879 .16299439-.0107421879 .2669983-.0107421879 .32598878 .1330719 .32598878 .14305115 .32598878 .14804077 .32299806 .1550293 .31298829 .1550293 .30299378 .1550293 .3019867 .15203858 .29499818 .1350708 .2639923 .06317139 .21398926 .014251709 .16499329 .014251709 .14498902 .014251709 .1329956 .027236939 .1329956 .060180665 .1329956 .08215332 .13598633 .09413147 .13999939 .10910034L.21299744 .3996582Z"/>
<path id="font_5_1" d="M.33198548 .66430667C.33299256 .66830447 .33499146 .67430117 .33499146 .67930606 .33499146 .6953125 .31498719 .6943054 .30299378 .69329836L.19099427 .6843109C.17399597 .68330386 .16099549 .682312 .16099549 .65830996 .16099549 .64331057 .17399597 .64331057 .18998719 .64331057 .21899414 .64331057 .22599793 .64030459 .23899842 .63630679 .23899842 .62431338 .23899842 .62231448 .23498535 .60632327L.09498596 .04725647C.09098816 .031234742 .09098816 .026229859 .09098816 .024230957 .09098816-.00077819827 .11099243-.009765625 .12599182-.009765625 .13598633-.009765625 .1539917-.0057678224 .16699219 .01322937 .17399597 .026229859 .21398926 .19239807 .22099304 .22442627 .28799439 .21942139 .3600006 .20339966 .3600006 .14434815 .3600006 .13934326 .3600006 .13433838 .35699464 .12332153 .35398866 .108306888 .35398866 .10231018 .35398866 .09429932 .35398866 .02822876 .4099884-.009765625 .46699525-.009765625 .56399539-.009765625 .598999 .13633728 .598999 .14434815 .598999 .14634705 .59799197 .15835572 .5799866 .15835572 .56599429 .15835572 .56399539 .15235901 .5589905 .13534546 .548996 .0993042 .5209961 .023223877 .46998597 .023223877 .43199159 .023223877 .43199159 .06626892 .43199159 .07728577 .43199159 .09329224 .43199159 .09429932 .43699647 .11431885 .43699647 .11532593 .44198609 .13534546 .44198609 .14735413 .44198609 .22442627 .35499574 .2484436 .27799989 .25546266 .3019867 .2704773 .32299806 .28648377 .36299134 .3215027 .41299439 .36549378 .46499635 .4084015 .519989 .4084015 .5329895 .4084015 .54499819 .40542604 .55400088 .3955078 .5189972 .38850404 .5039978 .36050416 .5039978 .3394928 .5039978 .30749513 .5299988 .3005066 .5439911 .3005066 .56599429 .3005066 .60198977 .3164978 .60198977 .36650086 .60198977 .4093933 .56999209 .44140626 .5209961 .44140626 .45799256 .44140626 .39898683 .39349366 .35299684 .35350038 .30099488 .3085022 .269989 .28248597 .23298645 .26846314L.33198548 .66430667Z"/>
<path id="font_6_1" d="M.6749878 .22944641C.69299319 .22944641 .71199038 .22944641 .71199038 .25144959 .71199038 .27246095 .69200137 .27246095 .6749878 .27246095H.12298584C.10598755 .27246095 .085998538 .27246095 .085998538 .25144959 .085998538 .22944641 .10499573 .22944641 .12298584 .22944641H.6749878Z"/>
<path id="font_6_2" d="M.8509979 .22944641C.7319946 .14404297 .70799258 .012786865 .70799258 .0017852783 .70799258-.012207031 .72099307-.012207031 .72898867-.012207031 .7409973-.012207031 .7480011-.012207031 .7509918 .00079345706 .7779999 .118927 .8470001 .19729615 .95599368 .23745728 .96199038 .23945618 .9700012 .2424469 .9700012 .25045777 .9700012 .25946046 .96299746 .26245118 .95700076 .26445008 .83099368 .31137086 .7739868 .400177 .7509918 .4981537 .7480011 .512146 .74398806 .5131531 .72898867 .5131531 .7200012 .5131531 .70799258 .5131531 .70799258 .4991455 .70799258 .48814393 .7319946 .3562622 .8509979 .27246095H.09399414C.07699585 .27246095 .056991579 .27246095 .056991579 .25144959 .056991579 .22944641 .07598877 .22944641 .09399414 .22944641H.8509979Z"/>
<path id="font_3_81" d="M.5209961 .2753296C.5209961 .37036134 .46099855 .4423828 .36898805 .4423828 .24198914 .4423828 .11099243 .30134584 .11099243 .1552887 .11099243 .06227112 .16899109-.0107421879 .2630005-.0107421879 .3929901-.0107421879 .5209961 .1342926 .5209961 .2753296M.44799806 .31333924C.44799806 .27833558 .42900086 .16429138 .38398744 .09527588 .35198976 .04626465 .30499269 .014251709 .2630005 .014251709 .22799683 .014251709 .18399048 .038253786 .18399048 .119277957 .18399048 .15829468 .20399475 .26333619 .24299622 .32835389 .27598573 .38536073 .32699586 .41737367 .36898805 .41737367 .41299439 .41737367 .44799806 .38136292 .44799806 .31333924Z"/>
</defs>
<path transform="matrix(1.00003,0,0,-1.00009,2.2955018,313.8378)" stroke-width=".79701" stroke-linecap="butt" stroke-miterlimit="10" stroke-linejoin="miter" fill="none" stroke="#b9b9b9" d="M0 7.97021V303.84468C0 308.24659 3.56833 311.8149 7.97021 311.8149H417.23194C421.6338 311.8149 425.20213 308.24659 425.20213 303.84468V7.97021C425.20213 3.56833 421.6338 0 417.23194 0H7.97021C3.56833 0 0 3.56833 0 7.97021ZM425.20213 311.8149"/>
<path transform="matrix(1.00003,0,0,-1.00009,2.2955018,313.8378)" stroke-width=".3985" stroke-linecap="butt" stroke-miterlimit="10" stroke-linejoin="miter" fill="none" stroke="#d2d2d2" d="M0 212.60106H425.20213"/>
<path transform="matrix(1.00003,0,0,-1.00009,2.2955018,313.8378)" stroke-width=".3985" stroke-linecap="butt" stroke-miterlimit="10" stroke-linejoin="miter" fill="none" stroke="#d2d2d2" d="M0 113.38724H425.20213"/>
<use data-text="d" xlink:href="#font_1_1" transform="matrix(8.966669,0,0,-8.967207,15.736908,20.745423)"/>
<use data-text="r" xlink:href="#font_2_1" transform="matrix(8.966669,0,0,-8.967207,20.512055,20.745423)"/>
<use data-text="r" xlink:href="#font_3_96" transform="matrix(8.966669,0,0,-8.967207,28.179284,20.745423)"/>
<use data-text="e" xlink:href="#font_3_50" transform="matrix(8.966669,0,0,-8.967207,31.604554,20.745423)"/>
<use data-text="p" xlink:href="#font_3_84" transform="matrix(8.966669,0,0,-8.967207,35.836824,20.745423)"/>
<use data-text="r" xlink:href="#font_3_96" transform="matrix(8.966669,0,0,-8.967207,40.544328,20.745423)"/>
<use data-text="e" xlink:href="#font_3_50" transform="matrix(8.966669,0,0,-8.967207,43.960626,20.745423)"/>
<use data-text="s" xlink:href="#font_3_98" transform="matrix(8.966669,0,0,-8.967207,48.192895,20.745423)"/>
<use data-text="e" xlink:href="#font_3_50" transform="matrix(8.966669,0,0,-8.967207,51.9589,20.745423)"/>
<use data-text="n" xlink:href="#font_3_77" transform="matrix(8.966669,0,0,-8.967207,56.191164,20.745423)"/>
<use data-text="t" xlink:href="#font_3_105" transform="matrix(8.966669,0,0,-8.967207,61.36493,20.745423)"/>
<use data-text="s" xlink:href="#font_3_98" transform="matrix(8.966669,0,0,-8.967207,64.42256,20.745423)"/>
<use data-text="/" xlink:href="#font_3_102" transform="matrix(8.966669,0,0,-8.967207,80.43703,20.745423)"/>
<use data-text="d" xlink:href="#font_1_1" transform="matrix(8.966669,0,0,-8.967207,97.402378,20.745423)"/>
<use data-text="s" xlink:href="#font_1_2" transform="matrix(8.966669,0,0,-8.967207,102.17264,20.745423)"/>
<use data-text="r" xlink:href="#font_3_96" transform="matrix(8.966669,0,0,-8.967207,109.76074,20.745423)"/>
<use data-text="e" xlink:href="#font_3_50" transform="matrix(8.966669,0,0,-8.967207,113.17705,20.745423)"/>
<use data-text="p" xlink:href="#font_3_84" transform="matrix(8.966669,0,0,-8.967207,117.40932,20.745423)"/>
<use data-text="r" xlink:href="#font_3_96" transform="matrix(8.966669,0,0,-8.967207,122.11682,20.745423)"/>
<use data-text="e" xlink:href="#font_3_50" transform="matrix(8.966669,0,0,-8.967207,125.53313,20.745423)"/>
<use data-text="s" xlink:href="#font_3_98" transform="matrix(8.966669,0,0,-8.967207,129.7654,20.745423)"/>
<use data-text="e" xlink:href="#font_3_50" transform="matrix(8.966669,0,0,-8.967207,133.5314,20.745423)"/>
<use data-text="n" xlink:href="#font_3_77" transform="matrix(8.966669,0,0,-8.967207,137.76367,20.745423)"/>
<use data-text="t" xlink:href="#font_3_105" transform="matrix(8.966669,0,0,-8.967207,142.93744,20.745423)"/>
<use data-text="s" xlink:href="#font_3_98" transform="matrix(8.966669,0,0,-8.967207,145.99507,20.745423)"/>
<use data-text="&#x2206;" xlink:href="#font_4_1" transform="matrix(8.966669,0,0,-8.967207,18.695,119.370288)"/>
<use data-text="r" xlink:href="#font_2_1" transform="matrix(8.966669,0,0,-8.967207,26.37423,119.370288)"/>
<path transform="matrix(1.00003,0,0,-1.00009,-67.56059,-172.69499)" stroke-width=".3786" stroke-linecap="butt" stroke-miterlimit="10" stroke-linejoin="miter" fill="none" stroke="#000000" d="M84.491-295.596H100.071"/>
<use data-text="&#x2206;" xlink:href="#font_4_1" transform="matrix(8.966669,0,0,-8.967207,16.932946,131.25136)"/>
<use data-text="t" xlink:href="#font_1_3" transform="matrix(8.966669,0,0,-8.967207,24.612175,131.25136)"/>
<use data-text="k" xlink:href="#font_5_1" transform="matrix(5.97778,0,0,-5.978138,27.940278,132.31444)"/>
<use data-text="&#x2212;" xlink:href="#font_6_1" transform="matrix(8.966669,0,0,-8.967207,36.26853,125.169788)"/>
<use data-text="&#x2192;" xlink:href="#font_6_2" transform="matrix(8.966669,0,0,-8.967207,41.899599,125.169788)"/>
<use data-text="s" xlink:href="#font_3_98" transform="matrix(8.966669,0,0,-8.967207,72.34061,125.169788)"/>
<use data-text="o" xlink:href="#font_3_81" transform="matrix(8.966669,0,0,-8.967207,76.10661,125.169788)"/>
<use data-text="&#x2206;" xlink:href="#font_4_1" transform="matrix(8.966669,0,0,-8.967207,102.037509,125.169788)"/>
<use data-text="r" xlink:href="#font_2_1" transform="matrix(8.966669,0,0,-8.967207,109.71773,125.169788)"/>
<use data-text="&#x2212;" xlink:href="#font_6_1" transform="matrix(8.966669,0,0,-8.967207,116.653949,125.169788)"/>
<use data-text="&#x2192;" xlink:href="#font_6_2" transform="matrix(8.966669,0,0,-8.967207,122.28502,125.169788)"/>
<use data-text="&#x2206;" xlink:href="#font_4_1" transform="matrix(8.966669,0,0,-8.967207,15.736908,218.59323)"/>
<use data-text="s" xlink:href="#font_1_2" transform="matrix(8.966669,0,0,-8.967207,23.417138,218.59323)"/>
<use data-text="k" xlink:href="#font_5_1" transform="matrix(5.97778,0,0,-5.978138,27.710267,219.65634)"/>
<use data-text="&#x2212;" xlink:href="#font_6_1" transform="matrix(8.966669,0,0,-8.967207,34.842477,218.59323)"/>
<use data-text="&#x2192;" xlink:href="#font_6_2" transform="matrix(8.966669,0,0,-8.967207,40.47354,218.59323)"/>
</svg>
