<svg xmlns="http://www.w3.org/2000/svg" xmlns:xlink="http://www.w3.org/1999/xlink" xmlns:inkscape="http://www.inkscape.org/namespaces/inkscape" version="1.1" width="429" height="174" viewBox="0 0 429 174">
<defs>
<path id="font_1_27" d="M.70899966 .017990113C.70899966 .0309906 .69799807 .0309906 .6859894 .0309906 .6329956 .0309906 .6309967 .037979127 .6289978 .064941409L.5799866 .69281008C.57899478 .7108154 .57598879 .7158203 .55999758 .7158203 .5509949 .7158203 .54100039 .7158203 .5299988 .6958008L.19599915 .116867069C.15098572 .038986207 .10899353 .032989503 .08198547 .0309906 .070999149 .02999878 .06098938 .0289917 .06098938 .0129852299 .06098938 .005996704 .06599426 0 .07299805 0 .07699585 0 .10499573 .0029907227 .1539917 .0029907227 .18499756 .0029907227 .21798706 0 .24699402 0 .25099183 0 .2649994 0 .2649994 .017990113 .2649994 .02999878 .2539978 .0309906 .25099183 .0309906 .22399903 .032989503 .20899964 .04296875 .20899964 .063949588 .20899964 .075927738 .21199036 .08190918 .22399903 .10487366L.29699708 .23168946H.5349884L.5479889 .061950685C.5479889 .053955079 .54100039 .03199768 .4850006 .0309906 .47200013 .0309906 .45899964 .0309906 .45899964 .0129852299 .45899964 .0079956059 .46199037 0 .47399903 0 .5099945 0 .548996 .0029907227 .58599856 .0029907227 .62098696 .0029907227 .6579895 0 .69099429 0 .69499209 0 .70899966 0 .70899966 .017990113M.5329895 .2626953H.31599427L.5069885 .59277346 .5329895 .2626953Z"/>
<path id="font_1_96" d="M.49899293 .3773651C.49899293 .41937257 .45199586 .4423828 .397995 .4423828 .33799745 .4423828 .2979889 .40637208 .27398683 .37236024 .2630005 .41737367 .22799683 .4423828 .18699646 .4423828 .1539917 .4423828 .1289978 .42237855 .11099243 .3843689 .09498596 .34934999 .08099365 .29333497 .08099365 .28933717 .08099365 .27633668 .09199524 .27633668 .09799194 .27633668 .11299133 .27633668 .11299133 .28033448 .117996219 .30033876 .13798523 .38035584 .15699768 .41737367 .18499756 .41737367 .20098877 .41737367 .21099854 .40837098 .21099854 .3773651 .21099854 .35635377 .20498657 .33035279 .20399475 .32633973L.13198853 .038269044C.12799073 .024261475 .12799073 .022262574 .12799073 .01725769 .12799073-.00074768069 .14199829-.0107421879 .15699768-.0107421879 .17098999-.0107421879 .18998719-.0047454836 .19799805 .026260376L.2630005 .28733827C.2649994 .29434205 .30899049 .41737367 .3959961 .41737367 .4019928 .41737367 .42999269 .41737367 .45098878 .40237428 .42099 .3923645 .41600038 .36836244 .41600038 .35635377 .41600038 .3363495 .43099977 .32434083 .44999696 .32434083 .47599793 .32434083 .49899293 .34635926 .49899293 .3773651Z"/>
<path id="font_1_50" d="M.48199464 .10134888C.47799684 .114364627 .46899415 .12036133 .46299745 .12036133 .45799256 .12036133 .45599366 .11836243 .44898988 .10935974 .3919983 .03627014 .31098939 .014251709 .2649994 .014251709 .19699097 .014251709 .18699646 .09033203 .18699646 .12536621 .18699646 .13337708 .18699646 .16542053 .20298767 .22949219H.23199463C.30699159 .22949219 .35899354 .2374878 .394989 .2514801 .46499635 .27946473 .47399903 .33543397 .47399903 .3564148 .47399903 .40138246 .43598939 .4423828 .36799623 .4423828 .2659912 .4423828 .115997318 .3484192 .115997318 .16741944 .115997318 .05529785 .1789856-.0107421879 .2639923-.0107421879 .35598756-.0107421879 .44400025 .039276124 .48199464 .10134888M.43299867 .35742188C.43299867 .25448609 .27398683 .25448609 .20899964 .25448609 .25498963 .41438294 .35398866 .41737367 .36799623 .41737367 .4119873 .41737367 .43299867 .38739015 .43299867 .35742188Z"/>
<path id="font_1_28" d="M.54100039 .14329529C.54100039 .1552887 .5279999 .1552887 .5239868 .1552887 .5089874 .1552887 .5079956 .1512909 .5039978 .1322937 .4869995 .06626892 .46899415 .014251709 .43598939 .014251709 .4169922 .014251709 .4099884 .030258179 .4099884 .055267335 .4099884 .06427002 .41299439 .08627319 .41799928 .106277469L.4850006 .37435914C.4889984 .3883667 .4889984 .3903656 .4889984 .3943634 .4889984 .41137696 .47599793 .42237855 .45999146 .42237855 .44699098 .42237855 .4249878 .41438294 .4189911 .3863678 .40899659 .40637208 .3829956 .4423828 .33299256 .4423828 .22099304 .4423828 .099990848 .29733277 .099990848 .14628601 .099990848 .044265748 .15899658-.0107421879 .22499085-.0107421879 .2849884-.0107421879 .32899476 .037261964 .34799195 .058258058 .35899354 .014251709 .3939972-.0107421879 .43499757-.0107421879 .48098756-.0107421879 .5019989 .029251099 .5099945 .04626465 .5279999 .08326721 .54100039 .1402893 .54100039 .14329529M.35398866 .12528992C.34498597 .091278079 .28199769 .014251709 .22799683 .014251709 .17298889 .014251709 .16999817 .088272098 .16999817 .103271488 .16999817 .15429688 .19999695 .264328 .21499634 .30233766 .24099732 .36535646 .2889862 .41737367 .33299256 .41737367 .3939972 .41737367 .40299989 .3333435 .40299989 .32635499 .40299989 .3213501 .40299989 .32034303 .3999939 .3103485L.35398866 .12528992Z"/>
<path id="font_2_3" d="M.70799258 .3310089C.7220001 .3310089 .7409973 .3310089 .7409973 .35202027 .7409973 .37402345 .71899417 .37402345 .70399478 .37402345H.09399414C.07899475 .37402345 .056991579 .37402345 .056991579 .35202027 .056991579 .3310089 .07699585 .3310089 .08999634 .3310089H.70799258M.70399478 .12695313C.71899417 .12695313 .7409973 .12695313 .7409973 .14894104 .7409973 .1699524 .7220001 .1699524 .70799258 .1699524H.08999634C.07699585 .1699524 .056991579 .1699524 .056991579 .14894104 .056991579 .12695313 .07899475 .12695313 .09399414 .12695313H.70399478Z"/>
<path id="font_2_5" d="M.18399048 .69433596 .035995485 .68333438V.6523285C.10398865 .6523285 .11299133 .6453247 .11299133 .5962982V.07701111C.11299133 .0309906 .101989749 .0309906 .035995485 .0309906V0C.08299255 .0019989014 .101989749 .0029907227 .147995 .0029907227 .19499207 .0029907227 .21199036 .0019989014 .26098634 0V.0309906C.19499207 .0309906 .18399048 .0309906 .18399048 .07701111V.69433596Z"/>
<path id="font_2_4" d="M.18399048 .4423828 .039993287 .43138124V.40037538C.10398865 .40037538 .11299133 .3943634 .11299133 .34532167V.077041629C.11299133 .0309906 .101989749 .0309906 .035995485 .0309906V0C.08099365 .0019989014 .101989749 .0029907227 .1459961 .0029907227 .1619873 .0029907227 .20399475 .0029907227 .25299073 0V.0309906C.18798828 .0309906 .18399048 .035995485 .18399048 .075042728V.4423828M.18699646 .615921C.18699646 .6459198 .16299439 .6699219 .1329956 .6699219 .101989749 .6699219 .07899475 .6449127 .07899475 .615921 .07899475 .58691409 .101989749 .56192019 .1329956 .56192019 .16299439 .56192019 .18699646 .585907 .18699646 .615921Z"/>
<path id="font_2_6" d="M.18598938 .2592163C.18598938 .36732484 .2639923 .41737367 .32398988 .41737367 .3789978 .41737367 .39698792 .37834168 .39698792 .30825807V.077041629C.39698792 .0309906 .38598634 .0309906 .31999208 .0309906V0C.36698915 .0019989014 .38598634 .0029907227 .43399049 .0029907227 .48199464 .0029907227 .49499513 .0019989014 .5479889 0V.0309906C.48199464 .0309906 .47099305 .0309906 .47099305 .077041629V.2592163C.47099305 .36732484 .548996 .41737367 .60899356 .41737367 .6639862 .41737367 .6819916 .37834168 .6819916 .30825807V.077041629C.6819916 .0309906 .67099 .0309906 .6049957 .0309906V0C.6519928 .0019989014 .67099 .0029907227 .71899417 .0029907227 .7669983 .0029907227 .7799988 .0019989014 .83299258 0V.0309906C.7819977 .0309906 .7569885 .0309906 .7559967 .062026979V.25421144C.7559967 .34129334 .7559967 .36932374 .72299197 .4063568 .70199587 .43037416 .6619873 .4423828 .6159973 .4423828 .5439911 .4423828 .49499513 .4003601 .46699525 .3473053 .45498658 .4063568 .4149933 .4423828 .33099366 .4423828 .25099183 .4423828 .20199585 .39035035 .18099976 .34429933L.17999268 .34370423V.4416504L.034988405 .43066407V.3996582C.102996829 .3996582 .11199951 .39266969 .11199951 .34370423V.07695007C.11199951 .0309906 .100997928 .0309906 .034988405 .0309906V0C.08198547 .0019989014 .100997928 .0029907227 .14898682 .0029907227 .19699097 .0029907227 .20999146 .0019989014 .2630005 0V.0309906C.19699097 .0309906 .18598938 .0309906 .18598938 .07695007V.2592163Z"/>
<path id="font_3_3" d="M.29299928 .3463745C.28799439 .4223938 .21798706 .44140626 .17999268 .44140626 .14199829 .44140626 .115997318 .418396 .09799194 .38638307 .07299805 .34536744 .06098938 .29234315 .06098938 .28834535 .06098938 .27734376 .069992069 .27334596 .07899475 .27334596 .09498596 .27334596 .09599304 .28034974 .100997928 .2963562 .12098694 .37638856 .14498902 .4084015 .1769867 .4084015 .21299744 .4084015 .21299744 .36738587 .21299744 .3573761 .21299744 .34136964 .20298767 .30134584 .19599915 .27334596 .18899536 .24632263 .1789856 .205307 .17399597 .18330384 .16699219 .15829468 .16099549 .13227844 .1539917 .10726929 .14698792 .07925415 .1349945 .02923584 .1349945 .023223877 .1349945 .0012207031 .1519928-.009765625 .16999817-.009765625 .18798828-.009765625 .20498657 .0022277833 .21299744 .017227173 .21499634 .023223877 .22399903 .058242799 .22898865 .07824707L.25099183 .16828919C.2579956 .19430542 .2619934 .21231079 .2679901 .23532105 .2769928 .2693329 .31199647 .32235719 .34899903 .359375 .36898805 .37838746 .4119873 .4084015 .46598817 .4084015 .5299988 .4084015 .5299988 .3573761 .5299988 .33836366 .5299988 .27934266 .4869995 .17228699 .46899415 .12727356 .46299745 .11026001 .45599366 .09425354 .45599366 .07725525 .45599366 .026229859 .5019989-.009765625 .5569916-.009765625 .6579895-.009765625 .70799258 .12226868 .70799258 .14428711 .70799258 .14628601 .70700076 .15829468 .68899539 .15829468 .6749878 .15829468 .673996 .1532898 .66799929 .13427735 .6519928 .08125305 .61099246 .023223877 .55999758 .023223877 .54100039 .023223877 .5329895 .038238527 .5329895 .059249879 .5329895 .07925415 .5399933 .09625244 .548996 .117263797 .56399539 .15628052 .60899356 .2693329 .60899356 .32536317 .60899356 .4073944 .5469971 .44140626 .47099305 .44140626 .42099 .44140626 .35699464 .42539979 .29299928 .3463745Z"/>
<path id="font_4_1" d="M.9720001 .22436524C.8509979 .13804627 .8279877 .005859375 .8279877 .0008544922 .8279877-.015136719 .84399417-.015136719 .85398867-.015136719 .8759918-.015136719 .8769989-.014144897 .8839874 .014862061 .9019928 .085861209 .94799807 .1360321 .9529877 .14205933 1.0179901 .20930481 1.0709992 .22436524 1.1169891 .23635865 1.121994 .23736573 1.1279907 .24235535 1.1279907 .2503662 1.1279907 .26036073 1.1210022 .2633667 1.1139984 .2653656 .9700012 .30230714 .9049988 .40312196 .8819885 .49209596 .8769989 .5121002 .8759918 .5151062 .85398867 .5151062 .84298709 .5151062 .8279877 .5151062 .8279877 .49909974 .8279877 .49409486 .8509979 .36219789 .9720001 .2763672H.13398743C.117996219 .2763672 .09298706 .2763672 .09298706 .2503662 .09298706 .22436524 .117996219 .22436524 .13398743 .22436524H.9720001Z"/>
<path id="font_4_2" d="M.58299258 .31636048C.47799684 .42840577 .37199403 .44140626 .31900025 .44140626 .18998719 .44140626 .09298706 .33836366 .09298706 .21531677 .09298706 .09825134 .18499756-.009765625 .31599427-.009765625 .43798829-.009765625 .5399933 .071243289 .6009979 .15628052L.6380005 .11526489C.7429962 .0032196046 .848999-.009765625 .9019928-.009765625 1.0309906-.009765625 1.1279907 .09326172 1.1279907 .2163086 1.1279907 .33337403 1.0359955 .44140626 .9049988 .44140626 .7829895 .44140626 .68099978 .36038209 .6199951 .27534486L.58299258 .31636048M.6539917 .23731995C.71099856 .3153534 .79599 .39839173 .91400149 .39839173 1.0219879 .39839173 1.0950012 .3103485 1.0950012 .2163086 1.0950012 .119262699 1.0110016 .050231935 .9189911 .050231935 .83999636 .050231935 .7709961 .09725952 .6539917 .23731995M.5669861 .19430542C.5099945 .11627197 .4249878 .033233644 .30699159 .033233644 .19898987 .033233644 .12599182 .1212616 .12599182 .21531677 .12599182 .31236268 .20999146 .38139344 .3019867 .38139344 .3809967 .38139344 .44999696 .33436585 .5669861 .19430542Z"/>
<path id="font_5_1" d="M.91999819-.049804689C.875-.05378723 .87098696-.08879089 .87098696-.0987854 .87098696-.13278198 .897995-.14878845 .91999819-.14878845 .94400027-.14878845 .9700012-.13278198 .9700012-.09779358 .9700012-.04286194 .91600039 0 .8569946 0 .7549896 0 .69599917-.13278198 .651001-.28479005 .625-.37179566 .49598695-.8718262 .3899994-1.4648743 .37298585-1.5608673 .32398988-1.8368988 .28399659-1.986908 .2679901-2.0449067 .22599793-2.1972657 .16899109-2.1972657 .16099549-2.1972657 .1309967-2.1952515 .10699463-2.1719208 .1519928-2.1679078 .1559906-2.132904 .1559906-2.1229096 .1559906-2.088913 .1289978-2.0729066 .10699463-2.0729066 .08299255-2.0729066 .056991579-2.088913 .056991579-2.1239014 .056991579-2.179016 .11099243-2.2222748 .16999817-2.2222748 .27198792-2.2222748 .33099366-2.088913 .37599183-1.9369049 .4019928-1.8488922 .5309906-1.3478546 .6369934-.7568207 .6539917-.6608124 .7029877-.38479615 .7429962-.23478699 .7589874-.17678833 .8009949-.025009156 .8580017-.025009156 .8659973-.025009156 .8959961-.026992798 .91999819-.049804689Z"/>
<path id="font_3_4" d="M.5629883 .39352418C.5279999 .38352967 .519989 .3545227 .519989 .33952333 .519989 .30752564 .54599 .30052186 .55999758 .30052186 .58898928 .30052186 .6179962 .32452394 .6179962 .3635254 .6179962 .41740418 .5589905 .44140626 .5079956 .44140626 .44198609 .44140626 .4019928 .3905182 .3909912 .371521 .37799073 .39649964 .33999635 .44140626 .2649994 .44140626 .1499939 .44140626 .08198547 .32252503 .08198547 .28749085 .08198547 .2824707 .085998538 .27345277 .099990848 .27345277 .11399841 .27345277 .116989139 .27946473 .11999512 .28848268 .14498902 .3695221 .21299744 .4084015 .2619934 .4084015 .31098939 .4084015 .32598878 .37652589 .32598878 .34352113 .32598878 .3315277 .32598878 .32252503 .31799317 .29148866 .29499818 .19825745 .272995 .10707092 .2679901 .095077518 .25299073 .05708313 .21699524 .023223877 .1749878 .023223877 .16899109 .023223877 .14099121 .023223877 .117996219 .038085939 .15699768 .051071168 .16099549 .08407593 .16099549 .09207153 .16099549 .11807251 .14099121 .13108826 .12098694 .13108826 .09298706 .13108826 .06298828 .10908508 .06298828 .06808472 .06298828 .011230469 .12599182-.009765625 .17298889-.009765625 .22999573-.009765625 .2709961 .029159546 .2899933 .060073854 .30999757 .018234253 .35798646-.009765625 .4149933-.009765625 .5329895-.009765625 .598999 .111083988 .598999 .14411927 .598999 .14611817 .59799197 .15815735 .5799866 .15815735 .56599429 .15815735 .56399539 .1511383 .5609894 .1421051 .5319977 .05508423 .46099855 .023223877 .4189911 .023223877 .3809967 .023223877 .35398866 .045074464 .35398866 .08708191 .35398866 .1060791 .35899354 .12808228 .36799623 .16316223L.3999939 .2935028C.4099884 .33251954 .4149933 .3505249 .43598939 .37452699 .44999696 .38952638 .47399903 .4084015 .5059967 .4084015 .5109863 .4084015 .54100039 .4084015 .5629883 .39352418Z"/>
<path id="font_6_1" d="M.81799319 .3388672C.83200076 .3388672 .8549957 .3388672 .8549957 .3648529 .8549957 .39085389 .8279877 .39085389 .8129883 .39085389H.12098694C.10598755 .39085389 .07899475 .39085389 .07899475 .3648529 .07899475 .3388672 .101989749 .3388672 .115997318 .3388672H.81799319M.8129883 .10913086C.8279877 .10913086 .8549957 .10913086 .8549957 .13513184 .8549957 .16113281 .83200076 .16113281 .81799319 .16113281H.115997318C.101989749 .16113281 .07899475 .16113281 .07899475 .13513184 .07899475 .10913086 .10598755 .10913086 .12098694 .10913086H.8129883Z"/>
<path id="font_3_2" d="M.2809906 .66430667C.28199769 .66830447 .28399659 .67430117 .28399659 .67930606 .28399659 .6953125 .2639923 .6943054 .2519989 .69329836L.13999939 .6843109C.12298584 .68330386 .10998535 .682312 .10998535 .65830996 .10998535 .64331057 .12298584 .64331057 .13899231 .64331057 .16799927 .64331057 .1749878 .64030459 .18798828 .63630679 .18699646 .61932376 .18699646 .6173248 .18199158 .59732058L.13598633 .4133911C.12799073 .38339234 .08898926 .22531128 .084991458 .21131897 .07998657 .18730164 .07998657 .17129517 .07998657 .1592865 .07998657 .04724121 .15499878-.009765625 .23699951-.009765625 .37098695-.009765625 .5049896 .12828064 .5049896 .2713318 .5049896 .37438966 .43299867 .44140626 .34298707 .44140626 .28199769 .44140626 .22999573 .4033966 .21099854 .38638307L.2809906 .66430667M.19299317 .31636048C.22399903 .359375 .28199769 .4084015 .33999635 .4084015 .3909912 .4084015 .41999818 .3683777 .41999818 .31036378 .41999818 .27534486 .3999939 .16629029 .36299134 .10726929 .32899476 .052246095 .2789917 .023223877 .23799134 .023223877 .20698548 .023223877 .15499878 .041229249 .15499878 .12727356 .15499878 .15829468 .1579895 .17430115 .17098999 .22732544 .1769867 .2503357 .18899536 .2983551 .19299317 .31636048Z"/>
<path id="font_3_1" d="M.5189972 .32136537C.5239868 .3443756 .5339966 .38238526 .5339966 .38938905 .5339966 .4113922 .5169983 .4223938 .49899293 .4223938 .47099305 .4223938 .45399476 .39639283 .45098878 .38139344 .43699647 .4044037 .40299989 .44140626 .34098817 .44140626 .21299744 .44140626 .07499695 .3073578 .07499695 .16029358 .07499695 .052246095 .15098572-.009765625 .23599243-.009765625 .30299378-.009765625 .3600006 .036239625 .3849945 .06124878 .4039917-.0017700195 .47099305-.009765625 .49299623-.009765625 .5289917-.009765625 .5549927 .010223389 .57398989 .041229249 .598999 .08125305 .61299136 .13928223 .61299136 .14428711 .61299136 .14628601 .6119995 .15829468 .59399417 .15829468 .57899478 .15829468 .57699587 .1512909 .57299807 .13528443 .5569916 .07424927 .5359955 .023223877 .49699403 .023223877 .46299745 .023223877 .45999146 .059249879 .45999146 .07424927 .45999146 .087249759 .46998597 .12727356 .47698976 .1532898L.5189972 .32136537M.3889923 .13127136C.38398744 .11326599 .38398744 .11126709 .36999513 .09625244 .31498719 .034225465 .2639923 .023223877 .23899842 .023223877 .19898987 .023223877 .1599884 .050231935 .1599884 .121276859 .1599884 .16229248 .18099976 .2603302 .21299744 .3173523 .24299622 .37138368 .2939911 .4084015 .34199525 .4084015 .4169922 .4084015 .43598939 .32936097 .43598939 .32235719L.43299867 .3083496 .3889923 .13127136Z"/>
<path id="font_7_2" d="M.37399293 .3996582H.46398927C.48399354 .3996582 .49398805 .3996582 .49398805 .41766358 .49398805 .43066407 .48399354 .43066407 .46499635 .43066407H.37998963C.3909912 .49082948 .40499879 .5730438 .41799928 .62705996 .4269867 .6660614 .45098878 .68006899 .47099305 .68006899 .47698976 .68006899 .5 .67807009 .5169983 .6660614 .49699403 .66204836 .46798707 .6440582 .46798707 .61105349 .46798707 .5860596 .4869995 .575058 .5059967 .575058 .5329895 .575058 .5609894 .59706118 .5609894 .63505557 .5609894 .68006899 .5169983 .7050781 .46998597 .7050781 .4249878 .7050781 .37998963 .6730652 .35899354 .63204959 .33699037 .5890503 .32998658 .5499878 .30899049 .43066407H.23699951C.21798706 .43066407 .20599365 .43066407 .20599365 .4126587 .20599365 .3996582 .21699524 .3996582 .23498535 .3996582H.30299378C.2749939 .25474549 .23999024 .054855348 .21798706-.049087526 .20599365-.10406494 .18998719-.18008423 .14199829-.18008423 .1269989-.18008423 .10699463-.17407227 .09700012-.16607666 .12199402-.1620636 .14698792-.1410675 .14698792-.111068729 .14698792-.08607483 .12799073-.07507324 .10899353-.07507324 .08198547-.07507324 .053985597-.097076419 .053985597-.1350708 .053985597-.18109131 .099990848-.20507813 .14199829-.20507813 .24398804-.20507813 .29100038-.039093019 .30699159 .04685974L.37399293 .3996582Z"/>
<path id="font_2_1" d="M.34098817-.23803711C.34098817-.23303223 .33799745-.23002625 .33198548-.22303772 .20298767-.105026248 .1639862 .07498169 .1639862 .24996948 .1639862 .40498353 .19400025 .59298709 .33499146 .72698977 .33898927 .73098757 .34098817 .73399356 .34098817 .7389984 .34098817 .74598696 .33599855 .75 .32899476 .75 .31698609 .75 .22698975 .6779785 .17298889 .568985 .125 .47297669 .100997928 .36997987 .100997928 .25097657 .100997928 .17897034 .10998535 .064971927 .16499329-.053024293 .22399903-.17602539 .31698609-.24902344 .32899476-.24902344 .33599855-.24902344 .34098817-.24502564 .34098817-.23803711Z"/>
<path id="font_7_3" d="M.49198915 .40434266C.45498658 .39733888 .44400025 .3653412 .44400025 .3503418 .44400025 .33132936 .45799256 .31433106 .48298646 .31433106 .5109863 .31433106 .5379944 .33833314 .5379944 .3733368 .5379944 .41937257 .48799134 .4423828 .44099427 .4423828 .3809967 .4423828 .34599305 .38934327 .33399964 .3683319 .31498719 .41737367 .2709961 .4423828 .22299195 .4423828 .115997318 .4423828 .057998659 .31433106 .057998659 .28833009 .057998659 .2793274 .06498718 .2763214 .07199097 .2763214 .08099365 .2763214 .083999637 .2813263 .085998538 .287323 .116989139 .38633729 .18299866 .41737367 .22099304 .41737367 .25 .41737367 .27598573 .3983307 .27598573 .35133363 .27598573 .31533814 .23298645 .15530396 .21998596 .107284549 .21199036 .076293949 .18199158 .014251709 .1269989 .014251709 .10699463 .014251709 .085998538 .021270752 .07598877 .027282715 .102996829 .032287599 .12298584 .055282594 .12298584 .08128357 .12298584 .106292728 .10398865 .11729431 .084991458 .11729431 .055999757 .11729431 .02999878 .092285159 .02999878 .058288576 .02999878 .009246826 .083999637-.0107421879 .12599182-.0107421879 .18399048-.0107421879 .21798706 .03729248 .23298645 .06428528 .2579956-.0017547608 .31698609-.0107421879 .34399415-.0107421879 .45199586-.0107421879 .5089874 .11929321 .5089874 .14329529 .5089874 .14830017 .5059967 .15530396 .49598695 .15530396 .4850006 .15530396 .48399354 .1512909 .47898866 .1362915 .45700074 .06428528 .39898683 .014251709 .34700013 .014251709 .31799317 .014251709 .29100038 .032287599 .29100038 .08029175 .29100038 .10229492 .30499269 .15730286 .31399537 .1953125 .31799317 .21331787 .34498597 .32133485 .34700013 .32833863 .35899354 .3643341 .3889923 .41737367 .43998719 .41737367 .45799256 .41737367 .47698976 .41436769 .49198915 .40434266Z"/>
<path id="font_2_2" d="M.2979889 .25097657C.2979889 .3329773 .28599549 .4429779 .23399353 .5539856 .1749878 .6769867 .08198547 .75 .069992069 .75 .05999756 .75 .057998659 .74198916 .057998659 .7389984 .057998659 .73399356 .05999756 .73098757 .066986087 .72398379 .125 .6719818 .23498535 .5359802 .23498535 .25097657 .23498535 .10797119 .20899964-.091033939 .06399536-.22602844 .06199646-.22903443 .057998659-.23303223 .057998659-.23803711 .057998659-.24102783 .05999756-.24902344 .069992069-.24902344 .08198547-.24902344 .17199707-.17703247 .22599793-.06802368 .27398683 .02796936 .2979889 .13098145 .2979889 .25097657Z"/>
<path id="font_7_1" d="M.5239868 .6603241C.5279999 .67433169 .5279999 .67633059 .5279999 .68032839 .5279999 .68933108 .5219879 .69433596 .5130005 .69433596 .49899293 .69433596 .41099549 .6863251 .3909912 .6843262 .3809967 .68333438 .36999513 .6823273 .36999513 .665329 .36999513 .6523285 .3809967 .6523285 .39698792 .6523285 .44400025 .6523285 .44400025 .6453247 .44400025 .6363373 .44400025 .6293335 .43499757 .5943451 .42999269 .573349L.41099549 .4963684C.40098573 .45837403 .3909912 .41937257 .38198854 .3803711 .36299134 .41638185 .33198548 .4423828 .2869873 .4423828 .17098999 .4423828 .041992189 .30433656 .041992189 .1512909 .041992189 .041259767 .11199951-.0107421879 .1789856-.0107421879 .24398804-.0107421879 .29699708 .043258668 .31298829 .06227112 .32398988 .007247925 .37399293-.0107421879 .4059906-.0107421879 .43499757-.0107421879 .45999146 .002243042 .48199464 .044265748 .5 .07727051 .5139923 .13928223 .5139923 .14329529 .5139923 .14828491 .5109863 .1552887 .5009918 .1552887 .4889984 .1552887 .48799134 .15029907 .48399354 .13128662 .46199037 .044265748 .43998719 .014251709 .40899659 .014251709 .38398744 .014251709 .37799073 .038253786 .37799073 .060272218 .37799073 .073272708 .3829956 .10127258 .38398744 .104278568L.5239868 .6603241M.31698609 .121276859C.31298829 .105285648 .31199647 .103271488 .29599 .08326721 .2599945 .040252687 .21899414 .014251709 .18199158 .014251709 .1329956 .014251709 .115997318 .06526184 .115997318 .10827637 .115997318 .15730286 .14498902 .27233888 .16899109 .32034303 .20098877 .3803711 .24699402 .41737367 .2869873 .41737367 .35398866 .41737367 .36898805 .3363495 .36898805 .3313446 .36898805 .32635499 .36698915 .32034303 .3659973 .3163452L.31698609 .121276859Z"/>
</defs>
<path transform="matrix(1.00003,0,0,-1,2.2955018,172.077)" stroke-width=".79701" stroke-linecap="butt" stroke-miterlimit="10" stroke-linejoin="miter" fill="none" stroke="#b9b9b9" d="M0 7.97021V162.11064C0 166.51253 3.56833 170.08086 7.97021 170.08086H417.23194C421.6338 170.08086 425.20213 166.51253 425.20213 162.11064V7.97021C425.20213 3.56833 421.6338 0 417.23194 0H7.97021C3.56833 0 0 3.56833 0 7.97021ZM425.20213 170.08086"/>
<path transform="matrix(1.00003,0,0,-1,2.2955018,172.077)" stroke-width=".3985" stroke-linecap="butt" stroke-miterlimit="10" stroke-linejoin="miter" fill="none" stroke="#d2d2d2" d="M0 85.04042H425.20213"/>
<use data-text="A" xlink:href="#font_1_27" transform="matrix(8.966669,0,0,-8.9664,15.736908,20.440003)"/>
<use data-text="r" xlink:href="#font_1_96" transform="matrix(8.966669,0,0,-8.9664,22.121178,20.440003)"/>
<use data-text="e" xlink:href="#font_1_50" transform="matrix(8.966669,0,0,-8.9664,25.537484,20.440003)"/>
<use data-text="a" xlink:href="#font_1_28" transform="matrix(8.966669,0,0,-8.9664,29.303475,20.440003)"/>
<use data-text="=" xlink:href="#font_2_3" transform="matrix(8.966669,0,0,-8.9664,37.292558,20.440003)"/>
<use data-text="l" xlink:href="#font_2_5" transform="matrix(8.966669,0,0,-8.9664,50.222497,20.440003)"/>
<use data-text="i" xlink:href="#font_2_4" transform="matrix(8.966669,0,0,-8.9664,52.778,20.440003)"/>
<use data-text="m" xlink:href="#font_2_6" transform="matrix(8.966669,0,0,-8.9664,55.333505,20.440003)"/>
<use data-text="n" xlink:href="#font_3_3" transform="matrix(5.97778,0,0,-5.9776,47.020845,25.863999)"/>
<use data-text="&#x2192;" xlink:href="#font_4_1" transform="matrix(5.97778,0,0,-5.9776,51.62098,25.863999)"/>
<use data-text="&#x221e;" xlink:href="#font_4_2" transform="matrix(5.97778,0,0,-5.9776,58.925828,25.863999)"/>
<use data-text="&#x222b;" xlink:href="#font_5_1" transform="matrix(8.966669,0,0,-8.9664,15.736908,100.749)"/>
<use data-text="x" xlink:href="#font_3_4" transform="matrix(5.97778,0,0,-5.9776,24.953186,103.212)"/>
<use data-text="=" xlink:href="#font_6_1" transform="matrix(5.97778,0,0,-5.9776,29.124314,103.212)"/>
<use data-text="b" xlink:href="#font_3_2" transform="matrix(5.97778,0,0,-5.9776,34.714487,103.212)"/>
<use data-text="x" xlink:href="#font_3_4" transform="matrix(5.97778,0,0,-5.9776,20.857064,121.17199)"/>
<use data-text="=" xlink:href="#font_6_1" transform="matrix(5.97778,0,0,-5.9776,25.02919,121.17199)"/>
<use data-text="a" xlink:href="#font_3_1" transform="matrix(5.97778,0,0,-5.9776,30.619362,121.17199)"/>
<use data-text="f" xlink:href="#font_7_2" transform="matrix(8.966669,0,0,-8.9664,40.022645,112.952999)"/>
<use data-text="(" xlink:href="#font_2_1" transform="matrix(8.966669,0,0,-8.9664,45.4718,112.952999)"/>
<use data-text="x" xlink:href="#font_7_3" transform="matrix(8.966669,0,0,-8.9664,49.05491,112.952999)"/>
<use data-text=")" xlink:href="#font_2_2" transform="matrix(8.966669,0,0,-8.9664,54.279069,112.952999)"/>
<use data-text="d" xlink:href="#font_7_1" transform="matrix(8.966669,0,0,-8.9664,59.398225,112.952999)"/>
<use data-text="x" xlink:href="#font_7_3" transform="matrix(8.966669,0,0,-8.9664,64.16849,112.952999)"/>
<use data-text="=" xlink:href="#font_2_3" transform="matrix(8.966669,0,0,-8.9664,71.95761,112.952999)"/>
</svg>
