<svg xmlns="http://www.w3.org/2000/svg" xmlns:xlink="http://www.w3.org/1999/xlink" xmlns:inkscape="http://www.inkscape.org/namespaces/inkscape" version="1.1" width="429" height="429" viewBox="0 0 429 429">
<defs>
<path id="font_1_114" d="M.71299746 .3733673C.71299746 .42938233 .6859894 .4423828 .66999819 .4423828 .6489868 .4423828 .621994 .42137147 .621994 .39637757 .621994 .3863678 .6239929 .38136292 .6319885 .37236024 .6429901 .35935975 .6619873 .33735658 .6619873 .29034425 .6619873 .2513275 .6289978 .1402893 .6139984 .106277469 .59999087 .07426453 .57099917 .014251709 .5119934 .014251709 .44898988 .014251709 .44599916 .07527161 .44599916 .09727478 .44599916 .12628174 .45298768 .15429688 .45999146 .18130493L.49899293 .33735658C.5039978 .35935975 .5139923 .39736939 .5139923 .4033661 .5139923 .42137147 .5 .43138124 .4850006 .43138124 .46899415 .43138124 .45098878 .42337037 .44400025 .3943634L.3889923 .17530823C.3880005 .17030335 .3809967 .14228821 .3809967 .11727905 .3809967 .09727478 .37298585 .07727051 .35398866 .05026245 .33699037 .026260376 .31799317 .014251709 .29599 .014251709 .22399903 .014251709 .22399903 .08427429 .22399903 .10127258 .22399903 .14628601 .23899842 .1973114 .27799989 .30433656 .28799439 .33035279 .2919922 .3403473 .2919922 .36036683 .2919922 .40937806 .2579956 .4423828 .21299744 .4423828 .117996219 .4423828 .08099365 .29733277 .08099365 .28833009 .08099365 .27633668 .09298706 .27633668 .09799194 .27633668 .11199951 .27633668 .11299133 .28134156 .116989139 .29333497 .12399292 .3193512 .15098572 .41737367 .20999146 .41737367 .21998596 .41737367 .23098755 .41537477 .23098755 .38937379 .23098755 .36436463 .21998596 .3343506 .21299744 .31533814 .16799927 .19430542 .1579895 .15429688 .1579895 .11428833 .1579895 .007247925 .24499512-.0107421879 .29299928-.0107421879 .33299256-.0107421879 .3659973 .009246826 .3919983 .052261354 .4189911-.002746582 .47799684-.0107421879 .5089874-.0107421879 .58599856-.0107421879 .6259918 .057266237 .644989 .103271488 .6759949 .17530823 .71299746 .3173523 .71299746 .3733673Z"/>
<path id="font_1_81" d="M.5209961 .2753296C.5209961 .37036134 .46099855 .4423828 .36898805 .4423828 .24198914 .4423828 .11099243 .30134584 .11099243 .1552887 .11099243 .06227112 .16899109-.0107421879 .2630005-.0107421879 .3929901-.0107421879 .5209961 .1342926 .5209961 .2753296M.44799806 .31333924C.44799806 .27833558 .42900086 .16429138 .38398744 .09527588 .35198976 .04626465 .30499269 .014251709 .2630005 .014251709 .22799683 .014251709 .18399048 .038253786 .18399048 .119277957 .18399048 .15829468 .20399475 .26333619 .24299622 .32835389 .27598573 .38536073 .32699586 .41737367 .36898805 .41737367 .41299439 .41737367 .44799806 .38136292 .44799806 .31333924Z"/>
<path id="font_1_96" d="M.49899293 .3773651C.49899293 .41937257 .45199586 .4423828 .397995 .4423828 .33799745 .4423828 .2979889 .40637208 .27398683 .37236024 .2630005 .41737367 .22799683 .4423828 .18699646 .4423828 .1539917 .4423828 .1289978 .42237855 .11099243 .3843689 .09498596 .34934999 .08099365 .29333497 .08099365 .28933717 .08099365 .27633668 .09199524 .27633668 .09799194 .27633668 .11299133 .27633668 .11299133 .28033448 .117996219 .30033876 .13798523 .38035584 .15699768 .41737367 .18499756 .41737367 .20098877 .41737367 .21099854 .40837098 .21099854 .3773651 .21099854 .35635377 .20498657 .33035279 .20399475 .32633973L.13198853 .038269044C.12799073 .024261475 .12799073 .022262574 .12799073 .01725769 .12799073-.00074768069 .14199829-.0107421879 .15699768-.0107421879 .17098999-.0107421879 .18998719-.0047454836 .19799805 .026260376L.2630005 .28733827C.2649994 .29434205 .30899049 .41737367 .3959961 .41737367 .4019928 .41737367 .42999269 .41737367 .45098878 .40237428 .42099 .3923645 .41600038 .36836244 .41600038 .35635377 .41600038 .3363495 .43099977 .32434083 .44999696 .32434083 .47599793 .32434083 .49899293 .34635926 .49899293 .3773651Z"/>
<path id="font_1_70" d="M.49798585 .14329529C.49798585 .1552887 .4850006 .1552887 .48098756 .1552887 .46598817 .1552887 .46499635 .1512909 .46099855 .1322937 .44699098 .07626343 .4269867 .014251709 .38398744 .014251709 .37098695 .014251709 .35499574 .018249512 .35499574 .055267335 .35499574 .07727051 .35499574 .07926941 .3639984 .11428833 .36799623 .13027954 .36799623 .1342926 .36799623 .14529419 .36799623 .22032166 .2849884 .24232483 .23298645 .25032044 .2579956 .26733399 .2809906 .28933717 .34498597 .35935975 .35099793 .36636354 .39698792 .41737367 .44499208 .41737367 .45599366 .41737367 .46598817 .41438294 .47200013 .40437318 .44198609 .3993683 .42900086 .3753662 .42900086 .35635377 .42900086 .3363495 .44400025 .32434083 .46299745 .32434083 .48199464 .32434083 .5119934 .3383484 .5119934 .3803711 .5119934 .41537477 .4869995 .4423828 .44699098 .4423828 .3869934 .4423828 .34399415 .3943634 .29699708 .3423462 .24798584 .28933717 .22999573 .2753296 .20599365 .264328L.30499269 .66230776C.30799867 .6753082 .30899049 .6773071 .30899049 .68029788 .30899049 .69329836 .2999878 .6953125 .2829895 .69329836L.1789856 .6843109C.1639862 .68330386 .1539917 .682312 .1539917 .66529849 .1539917 .652298 .1639862 .652298 .18099976 .652298 .22799683 .652298 .22799683 .64430239 .22799683 .63531497 .22799683 .63531497 .22799683 .62831118 .22399903 .61331179L.07998657 .037261964C.07598877 .023254395 .07598877 .021255494 .07598877 .01725769 .07598877 .002243042 .08699036-.0107421879 .10598755-.0107421879 .12199402-.0107421879 .13398743-.00074768069 .13999939 .009246826 .14399719 .01725769 .15098572 .044265748 .19599915 .22731018 .25099183 .22032166 .2999878 .1953125 .2999878 .14428711 .2999878 .13928223 .2999878 .13528443 .29699708 .121276859 .29299928 .104278568 .29299928 .09628296 .29299928 .08728027 .29299928 .023254395 .33499146-.0107421879 .3809967-.0107421879 .4169922-.0107421879 .44099427 .011245728 .45999146 .041259767 .48298646 .07926941 .49798585 .1382904 .49798585 .14329529Z"/>
<path id="font_1_28" d="M.54100039 .14329529C.54100039 .1552887 .5279999 .1552887 .5239868 .1552887 .5089874 .1552887 .5079956 .1512909 .5039978 .1322937 .4869995 .06626892 .46899415 .014251709 .43598939 .014251709 .4169922 .014251709 .4099884 .030258179 .4099884 .055267335 .4099884 .06427002 .41299439 .08627319 .41799928 .106277469L.4850006 .37435914C.4889984 .3883667 .4889984 .3903656 .4889984 .3943634 .4889984 .41137696 .47599793 .42237855 .45999146 .42237855 .44699098 .42237855 .4249878 .41438294 .4189911 .3863678 .40899659 .40637208 .3829956 .4423828 .33299256 .4423828 .22099304 .4423828 .099990848 .29733277 .099990848 .14628601 .099990848 .044265748 .15899658-.0107421879 .22499085-.0107421879 .2849884-.0107421879 .32899476 .037261964 .34799195 .058258058 .35899354 .014251709 .3939972-.0107421879 .43499757-.0107421879 .48098756-.0107421879 .5019989 .029251099 .5099945 .04626465 .5279999 .08326721 .54100039 .1402893 .54100039 .14329529M.35398866 .12528992C.34498597 .091278079 .28199769 .014251709 .22799683 .014251709 .17298889 .014251709 .16999817 .088272098 .16999817 .103271488 .16999817 .15429688 .19999695 .264328 .21499634 .30233766 .24099732 .36535646 .2889862 .41737367 .33299256 .41737367 .3939972 .41737367 .40299989 .3333435 .40299989 .32635499 .40299989 .3213501 .40299989 .32034303 .3999939 .3103485L.35398866 .12528992Z"/>
<path id="font_1_72" d="M.28799439 .14326477C.28799439 .15525818 .2749939 .15525818 .2709961 .15525818 .2559967 .15525818 .25498963 .15126038 .25099183 .13226319 .22799683 .040252687 .20899964 .014251709 .18399048 .014251709 .16499329 .014251709 .1579895 .030258179 .1579895 .055252077 .1579895 .06425476 .16099549 .086257938 .1659851 .10626221L.30499269 .66230776C.30799867 .6753082 .30899049 .6773071 .30899049 .68029788 .30899049 .69329836 .2999878 .6953125 .2829895 .69329836L.1789856 .6843109C.1639862 .68330386 .1539917 .682312 .1539917 .66529849 .1539917 .652298 .1639862 .652298 .18099976 .652298 .22799683 .652298 .22799683 .64430239 .22799683 .6352997 .22799683 .6352997 .22799683 .62831118 .22399903 .61331179L.09899902 .11425781C.09899902 .11425781 .09399414 .09526062 .09399414 .08026123 .09399414 .03225708 .12799073-.0107421879 .18299866-.0107421879 .22799683-.0107421879 .24798584 .026245118 .25698854 .04525757 .2749939 .08125305 .28799439 .14025879 .28799439 .14326477Z"/>
<path id="font_1_77" d="M.6029968 .14329529C.6029968 .1552887 .58999636 .1552887 .58599856 .1552887 .57199099 .1552887 .57099917 .15229798 .5649872 .13128662 .5549927 .09527588 .5269928 .014251709 .47299195 .014251709 .46499635 .014251709 .45199586 .01524353 .45199586 .042251588 .45199586 .06626892 .46398927 .09828186 .47200013 .120285037 .48999024 .16830445 .5309906 .2793274 .5309906 .3363495 .5309906 .4033661 .4909973 .4423828 .42099 .4423828 .34899903 .4423828 .30099488 .39837647 .2749939 .36636354 .2659912 .41638185 .22898865 .4423828 .18699646 .4423828 .1539917 .4423828 .1289978 .42237855 .11099243 .3843689 .09498596 .34934999 .08099365 .29333497 .08099365 .28933717 .08099365 .27633668 .09199524 .27633668 .09799194 .27633668 .11299133 .27633668 .11299133 .28033448 .117996219 .30033876 .13798523 .3803711 .15699768 .41737367 .18499756 .41737367 .20098877 .41737367 .21099854 .40837098 .21099854 .3773651 .21099854 .35635377 .20498657 .33035279 .20399475 .32635499L.13198853 .038253786C.12799073 .024246216 .12799073 .022247315 .12799073 .01725769 .12799073-.00074768069 .14199829-.0107421879 .15699768-.0107421879 .18899536-.0107421879 .19400025 .009246826 .20698548 .06427002L.22898865 .15029907 .26098634 .28033448C.2649994 .29333497 .29299928 .34535218 .31698609 .3693695 .33198548 .3843689 .36499024 .41737367 .4189911 .41737367 .45700074 .41737367 .46598817 .3843689 .46598817 .35235597 .46598817 .29434205 .4229889 .17630005 .4059906 .13128662 .3939972 .09828186 .3919983 .0922699 .3919983 .0712738 .3919983 .01725769 .42999269-.0107421879 .47099305-.0107421879 .56599429-.0107421879 .6029968 .1362915 .6029968 .14329529Z"/>
<path id="font_1_59" d="M.38398744-.06604004 .49398805 .3743286C.49798585 .38835145 .49798585 .39035035 .49798585 .39434815 .49798585 .4113617 .4850006 .42237855 .46899415 .42237855 .44898988 .42237855 .43299867 .4073639 .42799378 .38835145 .41600038 .4113617 .3899994 .4423828 .34199525 .4423828 .23399353 .4423828 .11199951 .30426026 .11199951 .15512085 .11199951 .04801941 .1769867 0 .23699951 0 .2769928 0 .31399537 .021987915 .34399415 .05001831L.32299806-.0340271C.31098939-.08303833 .30599977-.10305786 .27398683-.1370697 .24598694-.16908264 .21499634-.18008423 .17999268-.18008423 .14898682-.18008423 .12298584-.17507935 .10998535-.17108155 .11299133-.17007447 .13798523-.15608216 .13798523-.12705994 .13798523-.106048587 .12298584-.095047 .10398865-.095047 .085998538-.095047 .055999757-.109054569 .055999757-.14706421 .055999757-.18908692 .09799194-.20507813 .1789856-.20507813 .29299928-.20507813 .36698915-.13406372 .38398744-.06604004M.36499024 .13310242C.35598756 .09906006 .2939911 .024993897 .23999024 .024993897 .18499756 .024993897 .18199158 .09806824 .18199158 .113082889 .18199158 .16012573 .21099854 .27122499 .22799683 .31027223 .2579956 .37834168 .30499269 .41737367 .34199525 .41737367 .40499879 .41737367 .41299439 .33229066 .41299439 .32829286 .41299439 .32528688 .4119873 .32228089 .4099884 .31427003L.36499024 .13310242Z"/>
<path id="font_1_105" d="M.3659973 .14405823C.3659973 .1550293 .35299684 .1550293 .34999085 .1550293 .33699037 .1550293 .33599855 .15203858 .32998658 .13806153 .3019867 .06816101 .2599945 .014251709 .21199036 .014251709 .20098877 .014251709 .18399048 .01625061 .18399048 .05519104 .18399048 .06417847 .18699646 .086135867 .19198609 .10610962L.2649994 .3996582H.35099793C.36799623 .3996582 .3789978 .3996582 .3789978 .41766358 .3789978 .43066407 .36898805 .43066407 .35299684 .43066407H.272995L.30999757 .5778961C.31399537 .59191897 .31399537 .59391787 .31399537 .59791567 .31399537 .61494448 .30099488 .62597659 .2849884 .62597659 .2579956 .62597659 .24699402 .6039276 .24299622 .5868988L.20399475 .43066407H.11898804C.101989749 .43066407 .09098816 .43066407 .09098816 .4126587 .09098816 .3996582 .100997928 .3996582 .116989139 .3996582H.19599915L.125 .114089969C.125 .114089969 .11999512 .09512329 .11999512 .08015442 .11999512 .035217287 .15098572-.0107421879 .20999146-.0107421879 .31098939-.0107421879 .3659973 .13406372 .3659973 .14405823Z"/>
<path id="font_1_63" d="M.5509949 .14329529C.5509949 .1552887 .5379944 .1552887 .5339966 .1552887 .519989 .1552887 .5189972 .15229798 .5130005 .13128662 .5029907 .09527588 .47499085 .014251709 .42099 .014251709 .41299439 .014251709 .3999939 .01524353 .3999939 .042251588 .3999939 .06626892 .4119873 .09828186 .41999818 .120285037 .43798829 .16830445 .47898866 .2793274 .47898866 .3363495 .47898866 .4033661 .43899537 .4423828 .36898805 .4423828 .31399537 .4423828 .269989 .41737367 .23498535 .3803711L.30499269 .66230776C.30799867 .67630007 .30899049 .6773071 .30899049 .68029788 .30899049 .69329836 .2999878 .6953125 .2829895 .69329836L.1789856 .6843109C.1639862 .68330386 .1539917 .682312 .1539917 .66529849 .1539917 .652298 .1639862 .652298 .18099976 .652298 .22799683 .652298 .22799683 .64430239 .22799683 .63531497 .22799683 .63531497 .22799683 .62831118 .22399903 .61331179L.07998657 .037261964C.07598877 .023254395 .07598877 .021255494 .07598877 .01725769 .07598877 .002243042 .08699036-.0107421879 .10598755-.0107421879 .13699341-.0107421879 .14299011 .014251709 .1499939 .044265748 .1619873 .08728027 .1619873 .089279178 .17199707 .13027954L.20399475 .2603302C.21499634 .30134584 .23498535 .33935548 .2649994 .3693695 .27999879 .3843689 .31298829 .41737367 .36698915 .41737367 .40499879 .41737367 .4139862 .3843689 .4139862 .35235597 .4139862 .29434205 .37098695 .17630005 .35398866 .13128662 .34199525 .09828186 .33999635 .0922699 .33999635 .0712738 .33999635 .01725769 .37799073-.0107421879 .4189911-.0107421879 .5139923-.0107421879 .5509949 .1362915 .5509949 .14329529Z"/>
<path id="font_1_50" d="M.48199464 .10134888C.47799684 .114364627 .46899415 .12036133 .46299745 .12036133 .45799256 .12036133 .45599366 .11836243 .44898988 .10935974 .3919983 .03627014 .31098939 .014251709 .2649994 .014251709 .19699097 .014251709 .18699646 .09033203 .18699646 .12536621 .18699646 .13337708 .18699646 .16542053 .20298767 .22949219H.23199463C.30699159 .22949219 .35899354 .2374878 .394989 .2514801 .46499635 .27946473 .47399903 .33543397 .47399903 .3564148 .47399903 .40138246 .43598939 .4423828 .36799623 .4423828 .2659912 .4423828 .115997318 .3484192 .115997318 .16741944 .115997318 .05529785 .1789856-.0107421879 .2639923-.0107421879 .35598756-.0107421879 .44400025 .039276124 .48199464 .10134888M.43299867 .35742188C.43299867 .25448609 .27398683 .25448609 .20899964 .25448609 .25498963 .41438294 .35398866 .41737367 .36799623 .41737367 .4119873 .41737367 .43299867 .38739015 .43299867 .35742188Z"/>
<path id="font_2_5" d="M.2869873 .6603241C.29100038 .67433169 .29100038 .67633059 .29100038 .68032839 .29100038 .68933108 .2849884 .69433596 .27598573 .69433596 .2619934 .69433596 .17399597 .6863251 .1539917 .6843262 .14399719 .68333438 .1329956 .6823273 .1329956 .665329 .1329956 .6523285 .14399719 .6523285 .1599884 .6523285 .20698548 .6523285 .20698548 .6453247 .20698548 .6363373 .20698548 .6323395 .20698548 .6303406 .20199585 .6123352L.05899048 .037261964C.054992677 .023254395 .054992677 .021255494 .054992677 .018249512 .054992677 .002243042 .067993167-.0107421879 .085998538-.0107421879 .11898804-.0107421879 .12599182 .018249512 .1309967 .038253786L.17799378 .22732544C.24598694 .22132874 .29699708 .19432068 .29699708 .14430237 .29699708 .1382904 .29699708 .1342926 .2939911 .11929321 .29299928 .11528015 .2899933 .10128784 .2899933 .090270999 .2899933 .03125 .33099366-.0107421879 .38598634-.0107421879 .42399598-.0107421879 .44799806 .012252808 .46598817 .041259767 .4909973 .07926941 .5049896 .13929749 .5049896 .14329529 .5049896 .14830017 .5019989 .15530396 .49198915 .15530396 .48098756 .15530396 .47898866 .15029907 .47399903 .1322937 .46099855 .08126831 .43598939 .014251709 .3889923 .014251709 .3600006 .014251709 .35699464 .040252687 .35699464 .06227112 .35699464 .08728027 .36299134 .11328125 .3639984 .11528015 .3659973 .121292117 .36799623 .13328552 .36799623 .14529419 .36799623 .21531677 .29499818 .24232483 .21798706 .25134278 .24798584 .27033998 .269989 .29135133 .3019867 .32336427 .35299684 .37435914 .394989 .41737367 .44799806 .41737367 .45999146 .41737367 .47299195 .41436769 .48098756 .405365 .43598939 .4013672 .4249878 .36436463 .4249878 .35035707 .4249878 .33135987 .43899537 .31436158 .46398927 .31436158 .4869995 .31436158 .5189972 .33236695 .5189972 .37635804 .5189972 .4093628 .49499513 .4423828 .44799806 .4423828 .3869934 .4423828 .33799745 .39335633 .29599 .35035707 .24798584 .30336 .22399903 .27934266 .18699646 .26333619L.2869873 .6603241Z"/>
<path id="font_1_98" d="M.40299989 .15620423C.40299989 .18418885 .3929901 .21018982 .37298585 .23118592 .34700013 .25717164 .32398988 .2621765 .2789917 .27116395 .24899292 .27816773 .21299744 .28515626 .21299744 .32815553 .21299744 .3461609 .22898865 .41737367 .31599427 .41737367 .34599305 .41737367 .38198854 .4053192 .3919983 .37016297 .35499574 .36315919 .35499574 .33015443 .35499574 .33015443 .35499574 .32115174 .36099244 .30215455 .3849945 .30215455 .40699769 .30215455 .42799378 .31915284 .42799378 .3561554 .42799378 .40130616 .3880005 .4423828 .31599427 .4423828 .19898987 .4423828 .15499878 .3491516 .15499878 .29415895 .15499878 .21618653 .22200012 .20219422 .2519989 .19519043 .29899598 .18519593 .34399415 .17520142 .34399415 .12321472 .34399415 .09422302 .31999208 .014251709 .21099854 .014251709 .18499756 .014251709 .1289978 .021255494 .11299133 .068237308 .1599884 .07322693 .1599884 .115219119 .1599884 .115219119 .1599884 .14221192 .13699341 .14820862 .12599182 .14820862 .11999512 .14820862 .07598877 .14520264 .07598877 .08622742 .07598877 .03024292 .1289978-.0107421879 .21099854-.0107421879 .3639984-.0107421879 .40299989 .11122131 .40299989 .15620423Z"/>
<path id="font_1_109" d="M.57699587 .14329529C.57699587 .1552887 .56399539 .1552887 .55999758 .1552887 .54499819 .1552887 .5439911 .1512909 .5399933 .1322937 .522995 .06626892 .5049896 .014251709 .47200013 .014251709 .45298768 .014251709 .44599916 .030258179 .44599916 .055267335 .44599916 .06427002 .44898988 .08627319 .45399476 .106277469L.522995 .38237C.5269928 .39637757 .5269928 .39837647 .5269928 .4033661 .5269928 .42137147 .5130005 .43138124 .49798585 .43138124 .46598817 .43138124 .45799256 .40037538 .45599366 .39137269L.3849945 .104278568C.37799073 .07727051 .33699037 .014251709 .2769928 .014251709 .22599793 .014251709 .22200012 .06626892 .22200012 .091278079 .22200012 .14428711 .24499512 .21331787 .2789917 .30633546 .28799439 .3293457 .2919922 .3403473 .2919922 .36036683 .2919922 .40937806 .2579956 .4423828 .21299744 .4423828 .117996219 .4423828 .08099365 .29733277 .08099365 .28833009 .08099365 .27633668 .09298706 .27633668 .09799194 .27633668 .11199951 .27633668 .11299133 .28134156 .116989139 .29333497 .12399292 .3193512 .15098572 .41737367 .20999146 .41737367 .21998596 .41737367 .23098755 .41537477 .23098755 .38937379 .23098755 .36436463 .21998596 .3343506 .21299744 .31533814 .16699219 .19230652 .15699768 .1512909 .15699768 .107284549 .15699768 .009246826 .22799683-.0107421879 .27398683-.0107421879 .31599427-.0107421879 .35299684 .008255005 .3869934 .04925537 .4019928 .0052490236 .43798829-.0107421879 .47099305-.0107421879 .5169983-.0107421879 .5379944 .029251099 .54599 .04626465 .56399539 .08326721 .57699587 .1402893 .57699587 .14329529Z"/>
<path id="font_1_35" d="M.46899415 .28533937C.46899415 .38237 .4139862 .4423828 .34399415 .4423828 .29100038 .4423828 .24598694 .3993683 .23799134 .3923645L.30499269 .66230776C.30799867 .67630007 .30899049 .6773071 .30899049 .68029788 .30899049 .69329836 .2999878 .6953125 .2829895 .69329836L.1789856 .6843109C.1639862 .68330386 .1539917 .682312 .1539917 .66529849 .1539917 .652298 .1639862 .652298 .18099976 .652298 .22799683 .652298 .22799683 .64430239 .22799683 .63531497 .22799683 .62831118 .22599793 .62031558 .22399903 .61331179L.12399292 .21430969C.117996219 .19030762 .114990238 .16029358 .114990238 .14428711 .114990238 .060272218 .15899658-.0107421879 .23599243-.0107421879 .34999085-.0107421879 .46899415 .1382904 .46899415 .28533937M.35398866 .13027954C.31900025 .04725647 .269989 .014251709 .23599243 .014251709 .18899536 .014251709 .17599488 .0712738 .17599488 .10928345 .17599488 .14729309 .18598938 .18431092 .20498657 .264328 .20999146 .28433229 .21998596 .32034303 .22200012 .323349 .2669983 .3943634 .31098939 .41737367 .34199525 .41737367 .39898683 .41737367 .39898683 .3343506 .39898683 .32835389 .39898683 .2773285 .36698915 .16130066 .35398866 .13027954Z"/>
<path id="font_1_43" d="M.48199464 .10127258C.47799684 .11428833 .46899415 .120285037 .46299745 .120285037 .45799256 .120285037 .45599366 .11828613 .44898988 .10928345 .3919983 .036254884 .31098939 .014251709 .2649994 .014251709 .21499634 .014251709 .18399048 .052261354 .18399048 .11828613 .18399048 .16029358 .20399475 .2603302 .23999024 .32434083 .2689972 .3753662 .31999208 .41737367 .36999513 .41737367 .38198854 .41737367 .4249878 .41537477 .44198609 .37635804 .397995 .3713684 .3959961 .3333435 .3959961 .3293457 .3959961 .30033876 .4229889 .29634095 .42999269 .29634095 .44898988 .29634095 .47999574 .31134034 .47999574 .35635377 .47999574 .4033661 .43699647 .4423828 .36898805 .4423828 .24099732 .4423828 .11099243 .30033876 .11099243 .1552887 .11099243 .06726074 .1639862-.0107421879 .2639923-.0107421879 .35598756-.0107421879 .44400025 .039260866 .48199464 .10127258Z"/>
<path id="font_3_3" d="M.7409973 .46012879C.7409973 .48612977 .7319946 .49313355 .7259979 .49313355 .71499636 .49313355 .71199038 .47312928 .71099856 .46913148 .70899966 .44613648 .70700076 .41410829 .6619873 .38105775 .6389923 .36302186 .6049957 .35101319 .56999209 .35101319 .5139923 .35101319 .46499635 .37904359 .40499879 .42010499 .34298707 .4621277 .29100038 .49414063 .22799683 .49414063 .12799073 .49414063 .056991579 .4151001 .056991579 .3250122 .056991579 .29901124 .06599426 .29200746 .07199097 .29200746 .08198547 .29200746 .085998538 .31001283 .08699036 .31600953 .08799744 .33700563 .08999634 .3710327 .13598633 .40408326 .15899658 .42211915 .19299317 .4341278 .22799683 .4341278 .28399659 .4341278 .33399964 .40509034 .3919983 .36602784 .45700074 .3210144 .5079956 .29101563 .56999209 .29101563 .66999819 .29101563 .7409973 .3700409 .7409973 .46012879M.7409973 .21696472C.7409973 .2409668 .73298647 .24996948 .7259979 .24996948 .71499636 .24996948 .71199038 .22996521 .71099856 .2259674 .70899966 .20297241 .70700076 .17094422 .6619873 .13789368 .6359863 .11785889 .60198977 .10784912 .56999209 .10784912 .5139923 .10784912 .46499635 .13587952 .40499879 .17694092 .34298707 .21896363 .29100038 .25097657 .22799683 .25097657 .12799073 .25097657 .056991579 .17193604 .056991579 .081848148 .056991579 .055847169 .06599426 .048843385 .07199097 .048843385 .08198547 .048843385 .085998538 .066848758 .08699036 .07284546 .08799744 .09384155 .08999634 .12786865 .13598633 .16091919 .15899658 .17895508 .19299317 .19096375 .22799683 .19096375 .28399659 .19096375 .33399964 .16192627 .3919983 .12286377 .45700074 .07785034 .5079956 .047851564 .56999209 .047851564 .67099 .047851564 .7409973 .12786865 .7409973 .21696472Z"/>
<path id="font_2_1" d="M.94400027 .5666046C.94799807 .5726013 .95500186 .5836029 .96099856 .5915985 .9989929 .64660647 1.0339966 .6496124 1.0619965 .6516113 1.074997 .65260317 1.074997 .6686096 1.074997 .6696167 1.074997 .6756134 1.0709992 .6826172 1.0629883 .6826172 1.0579987 .6826172 1.0379944 .6796112 .9830017 .6796112 .94898989 .6796112 .91400149 .6826172 .8819885 .6826172 .8759918 .6826172 .86299136 .6826172 .86299136 .6646118 .86299136 .65260317 .8739929 .6516113 .8779907 .6516113 .8919983 .65060427 .93499758 .64860537 .93499758 .6136017 .93499758 .6065979 .93299868 .5966034 .92099 .5765991L.6489868 .11054993 .6069946 .61961367C.6069946 .63061526 .61698916 .6516113 .67900088 .6516113 .69099429 .6516113 .7029877 .6516113 .7029877 .6696167 .7029877 .6786041 .69599917 .6826172 .6879883 .6826172 .6609955 .6826172 .59399417 .6796112 .5669861 .6796112 .5299988 .6796112 .5279999 .6796112 .5119934 .680603 .49899293 .6816101 .47200013 .6826172 .45999146 .6826172 .45498658 .6826172 .44198609 .6826172 .44198609 .6646118 .44198609 .6516113 .45298768 .6516113 .46499635 .6516113 .5109863 .6516113 .5149994 .64460757 .5169983 .6286011 .5179901 .62260439 .522995 .56159976 .522995 .55960085 .522995 .555603 .522995 .55259707 .5159912 .54060366L.2639923 .11054993 .22299195 .6036072C.22099304 .62361147 .21899414 .65060427 .29299928 .6516113 .30599977 .6516113 .31799317 .6516113 .31799317 .6696167 .31799317 .6816101 .30699159 .6826172 .30299378 .6826172 .2849884 .6826172 .2639923 .680603 .24499512 .680603 .22499085 .680603 .20298767 .6796112 .18299866 .6796112 .16499329 .6796112 .13999939 .6796112 .12799073 .680603 .11898804 .680603 .083999637 .6826172 .07598877 .6826172 .07199097 .6826172 .057998659 .6826172 .057998659 .6646118 .057998659 .6516113 .068984989 .6516113 .08099365 .6516113 .1309967 .6516113 .13198853 .6436157 .13398743 .61660769L.18499756 .002532959C.18598938-.014465332 .18699646-.022460938 .20199585-.022460938 .21598816-.022460938 .21899414-.016464234 .22799683-.0014648438L.5269928 .5095978 .56900027 .0045318605C.56999209-.013473511 .57099917-.022460938 .58699038-.022460938 .59098818-.022460938 .60198977-.022460938 .6139984-.0014648438L.94400027 .5666046Z"/>
<path id="font_4_5" d="M.29299928 .3463745C.28799439 .4223938 .21798706 .44140626 .17999268 .44140626 .14199829 .44140626 .115997318 .418396 .09799194 .38638307 .07299805 .34536744 .06098938 .29234315 .06098938 .28834535 .06098938 .27734376 .069992069 .27334596 .07899475 .27334596 .09498596 .27334596 .09599304 .28034974 .100997928 .2963562 .12098694 .37638856 .14498902 .4084015 .1769867 .4084015 .21299744 .4084015 .21299744 .36738587 .21299744 .3573761 .21299744 .34136964 .20298767 .30134584 .19599915 .27334596 .18899536 .24632263 .1789856 .205307 .17399597 .18330384 .16699219 .15829468 .16099549 .13227844 .1539917 .10726929 .14698792 .07925415 .1349945 .02923584 .1349945 .023223877 .1349945 .0012207031 .1519928-.009765625 .16999817-.009765625 .18798828-.009765625 .20498657 .0022277833 .21299744 .017227173 .21499634 .023223877 .22399903 .058242799 .22898865 .07824707L.25099183 .16828919C.2579956 .19430542 .2619934 .21231079 .2679901 .23532105 .2769928 .2693329 .31199647 .32235719 .34899903 .359375 .36898805 .37838746 .4119873 .4084015 .46598817 .4084015 .5299988 .4084015 .5299988 .3573761 .5299988 .33836366 .5299988 .27934266 .4869995 .17228699 .46899415 .12727356 .46299745 .11026001 .45599366 .09425354 .45599366 .07725525 .45599366 .026229859 .5019989-.009765625 .5569916-.009765625 .6579895-.009765625 .70799258 .12226868 .70799258 .14428711 .70799258 .14628601 .70700076 .15829468 .68899539 .15829468 .6749878 .15829468 .673996 .1532898 .66799929 .13427735 .6519928 .08125305 .61099246 .023223877 .55999758 .023223877 .54100039 .023223877 .5329895 .038238527 .5329895 .059249879 .5329895 .07925415 .5399933 .09625244 .548996 .117263797 .56399539 .15628052 .60899356 .2693329 .60899356 .32536317 .60899356 .4073944 .5469971 .44140626 .47099305 .44140626 .42099 .44140626 .35699464 .42539979 .29299928 .3463745Z"/>
<path id="font_5_1" d="M1.302002-1.4003906 1.427002-1.0813294H1.3990021C1.3119965-1.29039 1.0279999-1.3143921 .8109894-1.3143921H.18998719L.70799258-.71720889C.71798709-.7062073 .71798709-.7052002 .71798709-.7002106 .71798709-.6972046 .71798709-.6952057 .71099856-.6851959L.23298645-.05000305H.8009949C.99198916-.05000305 1.0939942-.07501221 1.1149902-.08000183 1.2539978-.11302185 1.3589935-.18804932 1.3990021-.2830658H1.427002L1.302002 0H.085998538C.066986087 0 .06298828 0 .05899048-.007003784 .056991579-.011001587 .056991579-.029006958 .056991579-.041000368L.5970001-.7602234 .066986087-1.3713989C.056991579-1.3824005 .056991579-1.3853912 .056991579-1.3874054 .056991579-1.4003906 .067993167-1.4003906 .085998538-1.4003906H1.302002Z"/>
<path id="font_4_4" d="M.33198548 .66430667C.33299256 .66830447 .33499146 .67430117 .33499146 .67930606 .33499146 .6953125 .31498719 .6943054 .30299378 .69329836L.19099427 .6843109C.17399597 .68330386 .16099549 .682312 .16099549 .65830996 .16099549 .64331057 .17399597 .64331057 .18998719 .64331057 .21899414 .64331057 .22599793 .64030459 .23899842 .63630679 .23899842 .62431338 .23899842 .62231448 .23498535 .60632327L.09498596 .04725647C.09098816 .031234742 .09098816 .026229859 .09098816 .024230957 .09098816-.00077819827 .11099243-.009765625 .12599182-.009765625 .13598633-.009765625 .1539917-.0057678224 .16699219 .01322937 .17399597 .026229859 .21398926 .19239807 .22099304 .22442627 .28799439 .21942139 .3600006 .20339966 .3600006 .14434815 .3600006 .13934326 .3600006 .13433838 .35699464 .12332153 .35398866 .108306888 .35398866 .10231018 .35398866 .09429932 .35398866 .02822876 .4099884-.009765625 .46699525-.009765625 .56399539-.009765625 .598999 .13633728 .598999 .14434815 .598999 .14634705 .59799197 .15835572 .5799866 .15835572 .56599429 .15835572 .56399539 .15235901 .5589905 .13534546 .548996 .0993042 .5209961 .023223877 .46998597 .023223877 .43199159 .023223877 .43199159 .06626892 .43199159 .07728577 .43199159 .09329224 .43199159 .09429932 .43699647 .11431885 .43699647 .11532593 .44198609 .13534546 .44198609 .14735413 .44198609 .22442627 .35499574 .2484436 .27799989 .25546266 .3019867 .2704773 .32299806 .28648377 .36299134 .3215027 .41299439 .36549378 .46499635 .4084015 .519989 .4084015 .5329895 .4084015 .54499819 .40542604 .55400088 .3955078 .5189972 .38850404 .5039978 .36050416 .5039978 .3394928 .5039978 .30749513 .5299988 .3005066 .5439911 .3005066 .56599429 .3005066 .60198977 .3164978 .60198977 .36650086 .60198977 .4093933 .56999209 .44140626 .5209961 .44140626 .45799256 .44140626 .39898683 .39349366 .35299684 .35350038 .30099488 .3085022 .269989 .28248597 .23298645 .26846314L.33198548 .66430667Z"/>
<path id="font_6_2" d="M.81799319 .3388672C.83200076 .3388672 .8549957 .3388672 .8549957 .3648529 .8549957 .39085389 .8279877 .39085389 .8129883 .39085389H.12098694C.10598755 .39085389 .07899475 .39085389 .07899475 .3648529 .07899475 .3388672 .101989749 .3388672 .115997318 .3388672H.81799319M.8129883 .10913086C.8279877 .10913086 .8549957 .10913086 .8549957 .13513184 .8549957 .16113281 .83200076 .16113281 .81799319 .16113281H.115997318C.101989749 .16113281 .07899475 .16113281 .07899475 .13513184 .07899475 .10913086 .10598755 .10913086 .12098694 .10913086H.8129883Z"/>
<path id="font_6_1" d="M.35899354 .6349335C.35899354 .66503909 .35499574 .66503909 .32499696 .66503909 .25898744 .60058596 .15699768 .60058596 .12098694 .60058596V.5615845C.14698792 .5615845 .21299744 .5615845 .272995 .58958438V.08496094C.272995 .051986696 .272995 .038986207 .16999817 .038986207H.1269989V0C.18199158 .0039978029 .2599945 .0039978029 .31599427 .0039978029 .37199403 .0039978029 .44999696 .0039978029 .5049896 0V.038986207H.46199037C.35899354 .038986207 .35899354 .051986696 .35899354 .08496094V.6349335Z"/>
<path id="font_7_3" d="M.70799258 .3310089C.7220001 .3310089 .7409973 .3310089 .7409973 .35202027 .7409973 .37402345 .71899417 .37402345 .70399478 .37402345H.09399414C.07899475 .37402345 .056991579 .37402345 .056991579 .35202027 .056991579 .3310089 .07699585 .3310089 .08999634 .3310089H.70799258M.70399478 .12695313C.71899417 .12695313 .7409973 .12695313 .7409973 .14894104 .7409973 .1699524 .7220001 .1699524 .70799258 .1699524H.08999634C.07699585 .1699524 .056991579 .1699524 .056991579 .14894104 .056991579 .12695313 .07899475 .12695313 .09399414 .12695313H.70399478Z"/>
<path id="font_7_5" d="M.18399048 .69433596 .035995485 .68333438V.6523285C.10398865 .6523285 .11299133 .6453247 .11299133 .5962982V.07701111C.11299133 .0309906 .101989749 .0309906 .035995485 .0309906V0C.08299255 .0019989014 .101989749 .0029907227 .147995 .0029907227 .19499207 .0029907227 .21199036 .0019989014 .26098634 0V.0309906C.19499207 .0309906 .18399048 .0309906 .18399048 .07701111V.69433596Z"/>
<path id="font_7_4" d="M.18399048 .4423828 .039993287 .43138124V.40037538C.10398865 .40037538 .11299133 .3943634 .11299133 .34532167V.077041629C.11299133 .0309906 .101989749 .0309906 .035995485 .0309906V0C.08099365 .0019989014 .101989749 .0029907227 .1459961 .0029907227 .1619873 .0029907227 .20399475 .0029907227 .25299073 0V.0309906C.18798828 .0309906 .18399048 .035995485 .18399048 .075042728V.4423828M.18699646 .615921C.18699646 .6459198 .16299439 .6699219 .1329956 .6699219 .101989749 .6699219 .07899475 .6449127 .07899475 .615921 .07899475 .58691409 .101989749 .56192019 .1329956 .56192019 .16299439 .56192019 .18699646 .585907 .18699646 .615921Z"/>
<path id="font_7_6" d="M.18598938 .2592163C.18598938 .36732484 .2639923 .41737367 .32398988 .41737367 .3789978 .41737367 .39698792 .37834168 .39698792 .30825807V.077041629C.39698792 .0309906 .38598634 .0309906 .31999208 .0309906V0C.36698915 .0019989014 .38598634 .0029907227 .43399049 .0029907227 .48199464 .0029907227 .49499513 .0019989014 .5479889 0V.0309906C.48199464 .0309906 .47099305 .0309906 .47099305 .077041629V.2592163C.47099305 .36732484 .548996 .41737367 .60899356 .41737367 .6639862 .41737367 .6819916 .37834168 .6819916 .30825807V.077041629C.6819916 .0309906 .67099 .0309906 .6049957 .0309906V0C.6519928 .0019989014 .67099 .0029907227 .71899417 .0029907227 .7669983 .0029907227 .7799988 .0019989014 .83299258 0V.0309906C.7819977 .0309906 .7569885 .0309906 .7559967 .062026979V.25421144C.7559967 .34129334 .7559967 .36932374 .72299197 .4063568 .70199587 .43037416 .6619873 .4423828 .6159973 .4423828 .5439911 .4423828 .49499513 .4003601 .46699525 .3473053 .45498658 .4063568 .4149933 .4423828 .33099366 .4423828 .25099183 .4423828 .20199585 .39035035 .18099976 .34429933L.17999268 .34370423V.4416504L.034988405 .43066407V.3996582C.102996829 .3996582 .11199951 .39266969 .11199951 .34370423V.07695007C.11199951 .0309906 .100997928 .0309906 .034988405 .0309906V0C.08198547 .0019989014 .100997928 .0029907227 .14898682 .0029907227 .19699097 .0029907227 .20999146 .0019989014 .2630005 0V.0309906C.19699097 .0309906 .18598938 .0309906 .18598938 .07695007V.2592163Z"/>
<path id="font_8_1" d="M.9720001 .22436524C.8509979 .13804627 .8279877 .005859375 .8279877 .0008544922 .8279877-.015136719 .84399417-.015136719 .85398867-.015136719 .8759918-.015136719 .8769989-.014144897 .8839874 .014862061 .9019928 .085861209 .94799807 .1360321 .9529877 .14205933 1.0179901 .20930481 1.0709992 .22436524 1.1169891 .23635865 1.121994 .23736573 1.1279907 .24235535 1.1279907 .2503662 1.1279907 .26036073 1.1210022 .2633667 1.1139984 .2653656 .9700012 .30230714 .9049988 .40312196 .8819885 .49209596 .8769989 .5121002 .8759918 .5151062 .85398867 .5151062 .84298709 .5151062 .8279877 .5151062 .8279877 .49909974 .8279877 .49409486 .8509979 .36219789 .9720001 .2763672H.13398743C.117996219 .2763672 .09298706 .2763672 .09298706 .2503662 .09298706 .22436524 .117996219 .22436524 .13398743 .22436524H.9720001Z"/>
<path id="font_8_2" d="M.58299258 .31636048C.47799684 .42840577 .37199403 .44140626 .31900025 .44140626 .18998719 .44140626 .09298706 .33836366 .09298706 .21531677 .09298706 .09825134 .18499756-.009765625 .31599427-.009765625 .43798829-.009765625 .5399933 .071243289 .6009979 .15628052L.6380005 .11526489C.7429962 .0032196046 .848999-.009765625 .9019928-.009765625 1.0309906-.009765625 1.1279907 .09326172 1.1279907 .2163086 1.1279907 .33337403 1.0359955 .44140626 .9049988 .44140626 .7829895 .44140626 .68099978 .36038209 .6199951 .27534486L.58299258 .31636048M.6539917 .23731995C.71099856 .3153534 .79599 .39839173 .91400149 .39839173 1.0219879 .39839173 1.0950012 .3103485 1.0950012 .2163086 1.0950012 .119262699 1.0110016 .050231935 .9189911 .050231935 .83999636 .050231935 .7709961 .09725952 .6539917 .23731995M.5669861 .19430542C.5099945 .11627197 .4249878 .033233644 .30699159 .033233644 .19898987 .033233644 .12599182 .1212616 .12599182 .21531677 .12599182 .31236268 .20999146 .38139344 .3019867 .38139344 .3809967 .38139344 .44999696 .33436585 .5669861 .19430542Z"/>
<path id="font_3_1" d="M.19599915 .25125123C.19599915 .28025819 .17298889 .30525209 .14199829 .30525209 .11099243 .30525209 .08799744 .28025819 .08799744 .25125123 .08799744 .22225952 .11099243 .19726563 .14199829 .19726563 .17298889 .19726563 .19599915 .22225952 .19599915 .25125123Z"/>
<path id="font_5_2" d="M.91999819-.049804689C.875-.05378723 .87098696-.08879089 .87098696-.0987854 .87098696-.13278198 .897995-.14878845 .91999819-.14878845 .94400027-.14878845 .9700012-.13278198 .9700012-.09779358 .9700012-.04286194 .91600039 0 .8569946 0 .7549896 0 .69599917-.13278198 .651001-.28479005 .625-.37179566 .49598695-.8718262 .3899994-1.4648743 .37298585-1.5608673 .32398988-1.8368988 .28399659-1.986908 .2679901-2.0449067 .22599793-2.1972657 .16899109-2.1972657 .16099549-2.1972657 .1309967-2.1952515 .10699463-2.1719208 .1519928-2.1679078 .1559906-2.132904 .1559906-2.1229096 .1559906-2.088913 .1289978-2.0729066 .10699463-2.0729066 .08299255-2.0729066 .056991579-2.088913 .056991579-2.1239014 .056991579-2.179016 .11099243-2.2222748 .16999817-2.2222748 .27198792-2.2222748 .33099366-2.088913 .37599183-1.9369049 .4019928-1.8488922 .5309906-1.3478546 .6369934-.7568207 .6539917-.6608124 .7029877-.38479615 .7429962-.23478699 .7589874-.17678833 .8009949-.025009156 .8580017-.025009156 .8659973-.025009156 .8959961-.026992798 .91999819-.049804689Z"/>
<path id="font_4_1" d="M.8889923 .6750946C.8909912 .6840973 .8919983 .6880951 .8919983 .690094 .8919983 .6920929 .8909912 .70410159 .8769989 .70410159 .86898806 .70410159 .8679962 .7030945 .8580017 .6920929L.7829895 .6140442C.72898867 .6810913 .6559906 .70410159 .58399966 .70410159 .32998658 .70410159 .084991458 .48994447 .084991458 .2667389 .084991458 .094573978 .22499085-.021484375 .41099549-.021484375 .5149994-.021484375 .60598757 .021514893 .6649933 .06755066 .7639923 .1466217 .7799988 .23570252 .7799988 .2407074 .7799988 .25071717 .7709961 .25473023 .7619934 .25473023 .75 .25473023 .74598696 .25071717 .7429962 .2407074 .69499209 .08456421 .5379944 .018508912 .4269867 .018508912 .35299684 .018508912 .18998719 .048538209 .18998719 .2387085 .18998719 .27874757 .19898987 .41687013 .30899049 .5379791 .3619995 .59703066 .46899415 .664093 .59399417 .664093 .72299197 .664093 .7899933 .5720062 .7899933 .46691896 .7899933 .4499054 .7869873 .43188478 .7869873 .42988587 .7869873 .41487123 .8019867 .41487123 .8069916 .41487123 .81999209 .41487123 .82499697 .41586305 .8299866 .43688966L.8889923 .6750946Z"/>
<path id="font_9_2" d="M.7569885 .6735382H.06498718L.042999269 .43069459H.09399414C.10398865 .5416107 .11299133 .62454226 .2599945 .62454226H.33898927V.04899597H.18598938V0C.22999573 .0029907227 .3600006 .0029907227 .4119873 .0029907227 .46398927 .0029907227 .59298709 .0029907227 .6369934 0V.04899597H.48399354V.62454226H.5629883C.70999148 .62454226 .71798709 .5396118 .7279968 .43069459H.7789917L.7569885 .6735382Z"/>
<path id="font_2_4" d="M.5239868 .6603241C.5279999 .67433169 .5279999 .67633059 .5279999 .68032839 .5279999 .68933108 .5219879 .69433596 .5130005 .69433596 .49899293 .69433596 .41099549 .6863251 .3909912 .6843262 .3809967 .68333438 .36999513 .6823273 .36999513 .665329 .36999513 .6523285 .3809967 .6523285 .39698792 .6523285 .44400025 .6523285 .44400025 .6453247 .44400025 .6363373 .44400025 .6293335 .43499757 .5943451 .42999269 .573349L.41099549 .4963684C.40098573 .45837403 .3909912 .41937257 .38198854 .3803711 .36299134 .41638185 .33198548 .4423828 .2869873 .4423828 .17098999 .4423828 .041992189 .30433656 .041992189 .1512909 .041992189 .041259767 .11199951-.0107421879 .1789856-.0107421879 .24398804-.0107421879 .29699708 .043258668 .31298829 .06227112 .32398988 .007247925 .37399293-.0107421879 .4059906-.0107421879 .43499757-.0107421879 .45999146 .002243042 .48199464 .044265748 .5 .07727051 .5139923 .13928223 .5139923 .14329529 .5139923 .14828491 .5109863 .1552887 .5009918 .1552887 .4889984 .1552887 .48799134 .15029907 .48399354 .13128662 .46199037 .044265748 .43998719 .014251709 .40899659 .014251709 .38398744 .014251709 .37799073 .038253786 .37799073 .060272218 .37799073 .073272708 .3829956 .10127258 .38398744 .104278568L.5239868 .6603241M.31698609 .121276859C.31298829 .105285648 .31199647 .103271488 .29599 .08326721 .2599945 .040252687 .21899414 .014251709 .18199158 .014251709 .1329956 .014251709 .115997318 .06526184 .115997318 .10827637 .115997318 .15730286 .14498902 .27233888 .16899109 .32034303 .20098877 .3803711 .24699402 .41737367 .2869873 .41737367 .35398866 .41737367 .36898805 .3363495 .36898805 .3313446 .36898805 .32635499 .36698915 .32034303 .3659973 .3163452L.31698609 .121276859Z"/>
<path id="font_2_6" d="M.39698792 .37402345C.35398866 .37001039 .34999085 .3360138 .34999085 .32901 .34999085 .31201173 .36299134 .29901124 .38198854 .29901124 .4099884 .29901124 .42900086 .32202149 .42900086 .355011 .42900086 .40527345 .37998963 .4423828 .30599977 .4423828 .17199707 .4423828 .13398743 .3420105 .13398743 .2960205 .13398743 .25810243 .15299988 .23814392 .1659851 .22616577 .18598938 .2071991 .21299744 .20121765 .24899292 .19422913 .2939911 .1852417 .3039856 .18325806 .32199098 .17027283 .33799745 .15830994 .34700013 .14231873 .34700013 .12130737 .34700013 .0953064 .32299806 .014251709 .20199585 .014251709 .1789856 .014251709 .10899353 .01725769 .08699036 .063308719 .13699341 .063308719 .14698792 .10331726 .14698792 .11730957 .14698792 .14730835 .11999512 .15332031 .10899353 .15332031 .09098816 .15332031 .052993776 .13931275 .052993776 .08731079 .052993776 .025268555 .115997318-.0107421879 .20098877-.0107421879 .36898805-.0107421879 .4059906 .11231995 .4059906 .15530396 .4059906 .1932373 .3849945 .21717835 .37298585 .2291565 .34700013 .25610353 .31498719 .26208497 .27999879 .2690735 .2679901 .2720642 .24598694 .276062 .24299622 .27705384 .20999146 .28404237 .19198609 .3040161 .19198609 .32901 .19198609 .3400116 .19898987 .37200929 .22698975 .3941803 .25498963 .41636659 .29299928 .41737367 .30599977 .41737367 .34098817 .41737367 .38198854 .40628053 .39698792 .37402345Z"/>
<path id="font_1_66" d="M.34098817 .14329529C.34098817 .1552887 .32798768 .1552887 .32398988 .1552887 .30999757 .1552887 .30899049 .15229798 .30299378 .13128662 .29299928 .09527588 .2649994 .014251709 .21099854 .014251709 .20298767 .014251709 .18998719 .01524353 .18998719 .042251588 .18998719 .059265138 .19599915 .08227539 .20698548 .11328125 .22099304 .15029907 .22099304 .15229798 .23799134 .19430542L.27198792 .28833009C.2809906 .31134034 .2919922 .34135438 .2919922 .36036683 .2919922 .40937806 .2579956 .4423828 .21299744 .4423828 .117996219 .4423828 .08099365 .29733277 .08099365 .28833009 .08099365 .27633668 .09298706 .27633668 .09799194 .27633668 .11199951 .27633668 .11299133 .28134156 .116989139 .29333497 .12399292 .3193512 .15098572 .41737367 .20999146 .41737367 .21998596 .41737367 .23098755 .41537477 .23098755 .38937379 .23098755 .36535646 .22399903 .34535218 .20698548 .29833985L.17199707 .205307 .14698792 .1362915C.13899231 .11528015 .12998963 .091278079 .12998963 .0712738 .12998963 .01725769 .16799927-.0107421879 .20899964-.0107421879 .3039856-.0107421879 .34098817 .1362915 .34098817 .14329529M.3619995 .6102905C.3619995 .6382904 .33999635 .6542969 .31698609 .6542969 .28599549 .6542969 .2519989 .62628176 .2519989 .59028628 .2519989 .5622864 .27398683 .54629519 .29699708 .54629519 .32798768 .54629519 .3619995 .57429507 .3619995 .6102905Z"/>
<path id="font_9_3" d="M.21998596 .21809387C.21998596 .29112245 .24699402 .4071808 .34399415 .41018678 .33299256 .39918519 .32798768 .3821869 .32798768 .36616517 .32798768 .32214356 .36299134 .30213929 .3909912 .30213929 .4229889 .30213929 .45498658 .32414247 .45498658 .36616517 .45498658 .41719056 .40299989 .4501953 .34399415 .4501953 .27398683 .4501953 .23098755 .39918519 .20899964 .341156H.20799256V.4501953L.040985109 .44218446V.39318849C.100997928 .39318849 .10899353 .39318849 .10899353 .35417176V.04899597H.040985109V0C.114990238 .0029907227 .12098694 .0029907227 .16899109 .0029907227 .19400025 .0029907227 .2519989 .0029907227 .30499269 0V.04899597H.21998596V.21809387Z"/>
<path id="font_7_1" d="M.34098817-.23803711C.34098817-.23303223 .33799745-.23002625 .33198548-.22303772 .20298767-.105026248 .1639862 .07498169 .1639862 .24996948 .1639862 .40498353 .19400025 .59298709 .33499146 .72698977 .33898927 .73098757 .34098817 .73399356 .34098817 .7389984 .34098817 .74598696 .33599855 .75 .32899476 .75 .31698609 .75 .22698975 .6779785 .17298889 .568985 .125 .47297669 .100997928 .36997987 .100997928 .25097657 .100997928 .17897034 .10998535 .064971927 .16499329-.053024293 .22399903-.17602539 .31698609-.24902344 .32899476-.24902344 .33599855-.24902344 .34098817-.24502564 .34098817-.23803711Z"/>
<path id="font_2_7" d="M.21299744 .3996582H.30799867C.32598878 .3996582 .33799745 .3996582 .33799745 .41766358 .33799745 .43066407 .32798768 .43066407 .30999757 .43066407H.22099304L.2619934 .59646609C.2619934 .6124573 .24899292 .62545779 .23098755 .62545779 .19898987 .62545779 .19099427 .59646609 .18899536 .5864868L.14898682 .43066407H.054992677C.035995485 .43066407 .023986817 .43066407 .023986817 .4126587 .023986817 .3996582 .034988405 .3996582 .052993776 .3996582H.14199829L.07398987 .12808228C.06599426 .09811401 .06599426 .09613037 .06599426 .08215332 .06599426 .023239136 .11099243-.0107421879 .16299439-.0107421879 .2669983-.0107421879 .32598878 .1330719 .32598878 .14305115 .32598878 .14804077 .32299806 .1550293 .31298829 .1550293 .30299378 .1550293 .3019867 .15203858 .29499818 .1350708 .2639923 .06317139 .21398926 .014251709 .16499329 .014251709 .14498902 .014251709 .1329956 .027236939 .1329956 .060180665 .1329956 .08215332 .13598633 .09413147 .13999939 .10910034L.21299744 .3996582Z"/>
<path id="font_7_2" d="M.2979889 .25097657C.2979889 .3329773 .28599549 .4429779 .23399353 .5539856 .1749878 .6769867 .08198547 .75 .069992069 .75 .05999756 .75 .057998659 .74198916 .057998659 .7389984 .057998659 .73399356 .05999756 .73098757 .066986087 .72398379 .125 .6719818 .23498535 .5359802 .23498535 .25097657 .23498535 .10797119 .20899964-.091033939 .06399536-.22602844 .06199646-.22903443 .057998659-.23303223 .057998659-.23803711 .057998659-.24102783 .05999756-.24902344 .069992069-.24902344 .08198547-.24902344 .17199707-.17703247 .22599793-.06802368 .27398683 .02796936 .2979889 .13098145 .2979889 .25097657Z"/>
<path id="font_1_45" d="M.22799683 .04699707C.22799683 .07798767 .21699524 .10798645 .18099976 .10798645 .13999939 .10798645 .114990238 .070999149 .114990238 .042999269 .114990238 .016998291 .1329956 0 .1599884 0 .18199158 0 .18998719 .005996704 .19799805 .011993408 .1789856-.072128299 .12998963-.12922669 .08299255-.16830445 .07699585-.1743164 .07598877-.17530823 .07499695-.17730713L.07299805-.18232727C.07499695-.18833924 .07998657-.19433594 .085998538-.19433594 .10398865-.19433594 .22799683-.072128299 .22799683 .04699707Z"/>
<path id="font_2_2" d="M.38198854 .3803711C.36299134 .41638185 .33198548 .4423828 .2869873 .4423828 .17098999 .4423828 .041992189 .30433656 .041992189 .1512909 .041992189 .041259767 .11199951-.0107421879 .1789856-.0107421879 .24398804-.0107421879 .29699708 .043258668 .31298829 .06227112 .32398988 .007247925 .37399293-.0107421879 .4059906-.0107421879 .43499757-.0107421879 .45999146 .002243042 .48199464 .044265748 .5 .07727051 .5139923 .13928223 .5139923 .14329529 .5139923 .14828491 .5109863 .1552887 .5009918 .1552887 .4889984 .1552887 .48799134 .15029907 .48399354 .13128662 .46199037 .044265748 .43998719 .014251709 .40899659 .014251709 .38398744 .014251709 .37799073 .038253786 .37799073 .060272218 .37799073 .07926941 .3829956 .09927368 .3919983 .1342926L.4169922 .23731995C.42399598 .2623291 .44198609 .33735658 .44599916 .35235597 .44999696 .36636354 .45599366 .3903656 .45599366 .39337159 .45599366 .40937806 .44299317 .42237855 .4249878 .42237855 .4119873 .42237855 .3869934 .41438294 .38198854 .3803711M.31698609 .122283939C.31199647 .103271488 .31199647 .10227966 .29599 .08326721 .2599945 .040252687 .21899414 .014251709 .18199158 .014251709 .1329956 .014251709 .115997318 .06526184 .115997318 .10827637 .115997318 .15730286 .14498902 .27233888 .16899109 .32034303 .20098877 .3803711 .24699402 .41737367 .2869873 .41737367 .35398866 .41737367 .36898805 .33735658 .36898805 .33035279 .36898805 .3253479 .36698915 .3193512 .3659973 .31533814L.31698609 .122283939Z"/>
<path id="font_3_2" d="M.69200137 .6068268C.70098879 .6108246 .71199038 .61683657 .71199038 .62983706 .71199038 .64282229 .70199587 .65182498 .69099429 .65182498 .68899539 .65182498 .6839905 .65182498 .6719971 .64582827L.10598755 .37382508C.09199524 .3668213 .085998538 .36183167 .085998538 .349823 .085998538 .3368225 .09700012 .3308258 .10598755 .326828L.66999819 .05581665C.6839905 .048828126 .6879883 .048828126 .6899872 .048828126 .70599368 .048828126 .71199038 .062820438 .71199038 .06982422 .71199038 .08282471 .70399478 .08682251 .69400027 .09182739L.15699768 .35083009 .69200137 .6068268M.6749878-.15429688C.69200137-.15429688 .71199038-.15429688 .71199038-.13330078 .71199038-.11129761 .6899872-.11129761 .6749878-.11129761H.12298584C.10798645-.11129761 .085998538-.11129761 .085998538-.13330078 .085998538-.15429688 .10598755-.15429688 .12298584-.15429688H.6749878Z"/>
<path id="font_2_3" d="M.23899842 .6603241C.24299622 .67433169 .24299622 .67633059 .24299622 .68032839 .24299622 .68933108 .23699951 .69433596 .22799683 .69433596 .21398926 .69433596 .12599182 .6863251 .10598755 .6843262 .09599304 .68333438 .084991458 .6823273 .084991458 .665329 .084991458 .6523285 .09599304 .6523285 .11199951 .6523285 .15899658 .6523285 .15899658 .6453247 .15899658 .6363373 .15899658 .6303406 .15899658 .6283264 .1519928 .6013336L.09899902 .3903656C.084991458 .3343506 .07199097 .28334046 .06098938 .23631287 .053985597 .21131897 .04699707 .18130493 .04699707 .14929199 .04699707 .06326294 .09498596-.0107421879 .18099976-.0107421879 .2979889-.0107421879 .42599488 .13027954 .42599488 .28033448 .42599488 .38237 .36299134 .4423828 .28799439 .4423828 .23699951 .4423828 .19299317 .40737916 .16999817 .38536073L.23899842 .6603241M.1559906 .32835389C.18399048 .36836244 .23498535 .41737367 .28599549 .41737367 .33299256 .41737367 .35198976 .37036134 .35198976 .323349 .35198976 .27833558 .32398988 .15429688 .29299928 .10127258 .2559967 .037261964 .21199036 .014251709 .18099976 .014251709 .1309967 .014251709 .11099243 .06427002 .11099243 .11528015 .11099243 .15029907 .117996219 .17730713 .14099121 .2683258L.1559906 .32835389Z"/>
<path id="font_1_44" d="M.30699159 .3866577C.30699159 .4076538 .2919922 .43066407 .2619934 .43066407 .22799683 .43066407 .19599915 .3996582 .19599915 .36665345 .19599915 .33966065 .21598816 .32266236 .24099732 .32266236 .2749939 .32266236 .30699159 .35565187 .30699159 .3866577M.22599793 .06399536C.22599793 .08699036 .20899964 .10798645 .18099976 .10798645 .14498902 .10798645 .114990238 .07398987 .114990238 .04399109 .114990238 .020996094 .13198853 0 .1599884 0 .19599915 0 .22599793 .033996583 .22599793 .06399536Z"/>
<path id="font_9_1" d="M.6629944 .6795349H.041992189V.63053897H.1499939V.04899597H.041992189V0C.07699585 .0029907227 .18598938 .0029907227 .22799683 .0029907227 .2749939 .0029907227 .3889923 .0029907227 .42999269 0V.04899597H.29499818V.3154297H.34899903C.44599916 .3154297 .45498658 .2725067 .45498658 .19866944H.5059967V.48147584H.45498658C.45498658 .4074402 .44599916 .36442567 .34899903 .36442567H.29499818V.63053897H.44198609C.6029968 .63053897 .6279907 .5555115 .6429901 .43644715H.69400027L.6629944 .6795349Z"/>
<path id="font_4_3" d="M.2809906 .66430667C.28199769 .66830447 .28399659 .67430117 .28399659 .67930606 .28399659 .6953125 .2639923 .6943054 .2519989 .69329836L.13999939 .6843109C.12298584 .68330386 .10998535 .682312 .10998535 .65830996 .10998535 .64331057 .12298584 .64331057 .13899231 .64331057 .16799927 .64331057 .1749878 .64030459 .18798828 .63630679 .18699646 .61932376 .18699646 .6173248 .18199158 .59732058L.13598633 .4133911C.12799073 .38339234 .08898926 .22531128 .084991458 .21131897 .07998657 .18730164 .07998657 .17129517 .07998657 .1592865 .07998657 .04724121 .15499878-.009765625 .23699951-.009765625 .37098695-.009765625 .5049896 .12828064 .5049896 .2713318 .5049896 .37438966 .43299867 .44140626 .34298707 .44140626 .28199769 .44140626 .22999573 .4033966 .21099854 .38638307L.2809906 .66430667M.19299317 .31636048C.22399903 .359375 .28199769 .4084015 .33999635 .4084015 .3909912 .4084015 .41999818 .3683777 .41999818 .31036378 .41999818 .27534486 .3999939 .16629029 .36299134 .10726929 .32899476 .052246095 .2789917 .023223877 .23799134 .023223877 .20698548 .023223877 .15499878 .041229249 .15499878 .12727356 .15499878 .15829468 .1579895 .17430115 .17098999 .22732544 .1769867 .2503357 .18899536 .2983551 .19299317 .31636048Z"/>
<path id="font_4_2" d="M.5189972 .32136537C.5239868 .3443756 .5339966 .38238526 .5339966 .38938905 .5339966 .4113922 .5169983 .4223938 .49899293 .4223938 .47099305 .4223938 .45399476 .39639283 .45098878 .38139344 .43699647 .4044037 .40299989 .44140626 .34098817 .44140626 .21299744 .44140626 .07499695 .3073578 .07499695 .16029358 .07499695 .052246095 .15098572-.009765625 .23599243-.009765625 .30299378-.009765625 .3600006 .036239625 .3849945 .06124878 .4039917-.0017700195 .47099305-.009765625 .49299623-.009765625 .5289917-.009765625 .5549927 .010223389 .57398989 .041229249 .598999 .08125305 .61299136 .13928223 .61299136 .14428711 .61299136 .14628601 .6119995 .15829468 .59399417 .15829468 .57899478 .15829468 .57699587 .1512909 .57299807 .13528443 .5569916 .07424927 .5359955 .023223877 .49699403 .023223877 .46299745 .023223877 .45999146 .059249879 .45999146 .07424927 .45999146 .087249759 .46998597 .12727356 .47698976 .1532898L.5189972 .32136537M.3889923 .13127136C.38398744 .11326599 .38398744 .11126709 .36999513 .09625244 .31498719 .034225465 .2639923 .023223877 .23899842 .023223877 .19898987 .023223877 .1599884 .050231935 .1599884 .121276859 .1599884 .16229248 .18099976 .2603302 .21299744 .3173523 .24299622 .37138368 .2939911 .4084015 .34199525 .4084015 .4169922 .4084015 .43598939 .32936097 .43598939 .32235719L.43299867 .3083496 .3889923 .13127136Z"/>
</defs>
<path transform="matrix(1.00003,0,0,-1.00006,2.2955018,427.22068)" stroke-width=".79701" stroke-linecap="butt" stroke-miterlimit="10" stroke-linejoin="miter" fill="none" stroke="#b9b9b9" d="M0 7.97021V417.23194C0 421.6338 3.56833 425.20213 7.97021 425.20213H417.23194C421.6338 425.20213 425.20213 421.6338 425.20213 417.23194V7.97021C425.20213 3.56833 421.6338 0 417.23194 0H7.97021C3.56833 0 0 3.56833 0 7.97021ZM425.20213 425.20213"/>
<path transform="matrix(1.00003,0,0,-1.00006,2.2955018,427.22068)" stroke-width=".3985" stroke-linecap="butt" stroke-miterlimit="10" stroke-linejoin="miter" fill="none" stroke="#d2d2d2" d="M0 340.1617H425.20213"/>
<path transform="matrix(1.00003,0,0,-1.00006,2.2955018,427.22068)" stroke-width=".3985" stroke-linecap="butt" stroke-miterlimit="10" stroke-linejoin="miter" fill="none" stroke="#d2d2d2" d="M0 255.12128H425.20213"/>
<path transform="matrix(1.00003,0,0,-1.00006,2.2955018,427.22068)" stroke-width=".3985" stroke-linecap="butt" stroke-miterlimit="10" stroke-linejoin="miter" fill="none" stroke="#d2d2d2" d="M0 170.08086H425.20213"/>
<path transform="matrix(1.00003,0,0,-1.00006,2.2955018,427.22068)" stroke-width=".3985" stroke-linecap="butt" stroke-miterlimit="10" stroke-linejoin="miter" fill="none" stroke="#d2d2d2" d="M0 85.04042H425.20213"/>
<use data-text="w" xlink:href="#font_1_114" transform="matrix(8.966669,0,0,-8.966938,15.736908,20.250245)"/>
<use data-text="o" xlink:href="#font_1_81" transform="matrix(8.966669,0,0,-8.966938,21.852173,20.250245)"/>
<use data-text="r" xlink:href="#font_1_96" transform="matrix(8.966669,0,0,-8.966938,26.559678,20.250245)"/>
<use data-text="k" xlink:href="#font_1_70" transform="matrix(8.966669,0,0,-8.966938,30.442246,20.250245)"/>
<use data-text="a" xlink:href="#font_1_28" transform="matrix(8.966669,0,0,-8.966938,37.96528,20.250245)"/>
<use data-text="l" xlink:href="#font_1_72" transform="matrix(8.966669,0,0,-8.966938,42.672784,20.250245)"/>
<use data-text="o" xlink:href="#font_1_81" transform="matrix(8.966669,0,0,-8.966938,45.02205,20.250245)"/>
<use data-text="n" xlink:href="#font_1_77" transform="matrix(8.966669,0,0,-8.966938,49.729555,20.250245)"/>
<use data-text="g" xlink:href="#font_1_59" transform="matrix(8.966669,0,0,-8.966938,54.90332,20.250245)"/>
<use data-text="t" xlink:href="#font_1_105" transform="matrix(8.966669,0,0,-8.966938,62.42636,20.250245)"/>
<use data-text="h" xlink:href="#font_1_63" transform="matrix(8.966669,0,0,-8.966938,65.48399,20.250245)"/>
<use data-text="e" xlink:href="#font_1_50" transform="matrix(8.966669,0,0,-8.966938,70.1915,20.250245)"/>
<use data-text="k" xlink:href="#font_2_5" transform="matrix(8.966669,0,0,-8.966938,77.71477,20.250245)"/>
<use data-text="t" xlink:href="#font_1_105" transform="matrix(8.966669,0,0,-8.966938,82.775928,20.250245)"/>
<use data-text="h" xlink:href="#font_1_63" transform="matrix(8.966669,0,0,-8.966938,85.83356,20.250245)"/>
<use data-text="s" xlink:href="#font_1_98" transform="matrix(8.966669,0,0,-8.966938,93.822879,20.250245)"/>
<use data-text="u" xlink:href="#font_1_109" transform="matrix(8.966669,0,0,-8.966938,97.58887,20.250245)"/>
<use data-text="b" xlink:href="#font_1_35" transform="matrix(8.966669,0,0,-8.966938,102.52951,20.250245)"/>
<use data-text="a" xlink:href="#font_1_28" transform="matrix(8.966669,0,0,-8.966938,106.304477,20.250245)"/>
<use data-text="r" xlink:href="#font_1_96" transform="matrix(8.966669,0,0,-8.966938,111.01199,20.250245)"/>
<use data-text="c" xlink:href="#font_1_43" transform="matrix(8.966669,0,0,-8.966938,114.42828,20.250245)"/>
<use data-text="&#x2248;" xlink:href="#font_3_3" transform="matrix(8.966669,0,0,-8.966938,121.951099,20.250245)"/>
<use data-text="W" xlink:href="#font_2_1" transform="matrix(8.966669,0,0,-8.966938,15.736908,113.84189)"/>
<use data-text="&#x2248;" xlink:href="#font_3_3" transform="matrix(8.966669,0,0,-8.966938,28.279282,113.84189)"/>
<use data-text="n" xlink:href="#font_4_5" transform="matrix(5.97778,0,0,-5.9779589,42.365709,102.63321)"/>
<use data-text="&#x2211;" xlink:href="#font_5_1" transform="matrix(8.966669,0,0,-8.966938,38.010576,105.323368)"/>
<use data-text="k" xlink:href="#font_4_4" transform="matrix(5.97778,0,0,-5.9779589,38.006578,124.419528)"/>
<use data-text="=" xlink:href="#font_6_2" transform="matrix(5.97778,0,0,-5.9779589,42.081697,124.419528)"/>
<use data-text="1" xlink:href="#font_6_1" transform="matrix(5.97778,0,0,-5.9779589,47.67092,124.419528)"/>
<use data-text="W" xlink:href="#font_2_1" transform="matrix(8.966669,0,0,-8.966938,15.736908,196.31383)"/>
<use data-text="=" xlink:href="#font_7_3" transform="matrix(8.966669,0,0,-8.966938,28.279282,196.31383)"/>
<use data-text="l" xlink:href="#font_7_5" transform="matrix(8.966669,0,0,-8.966938,41.20922,196.31383)"/>
<use data-text="i" xlink:href="#font_7_4" transform="matrix(8.966669,0,0,-8.966938,43.764726,196.31383)"/>
<use data-text="m" xlink:href="#font_7_6" transform="matrix(8.966669,0,0,-8.966938,46.32023,196.31383)"/>
<use data-text="n" xlink:href="#font_4_5" transform="matrix(5.97778,0,0,-5.9779589,38.006578,201.73818)"/>
<use data-text="&#x2192;" xlink:href="#font_8_1" transform="matrix(5.97778,0,0,-5.9779589,42.60771,201.73818)"/>
<use data-text="&#x221e;" xlink:href="#font_8_2" transform="matrix(5.97778,0,0,-5.9779589,49.91256,201.73818)"/>
<use data-text="&#x00b7;" xlink:href="#font_3_1" transform="matrix(8.966669,0,0,-8.966938,58.756196,196.31383)"/>
<use data-text="&#x00b7;" xlink:href="#font_3_1" transform="matrix(8.966669,0,0,-8.966938,62.845,196.31383)"/>
<use data-text="&#x00b7;" xlink:href="#font_3_1" transform="matrix(8.966669,0,0,-8.966938,66.93379,196.31383)"/>
<use data-text="=" xlink:href="#font_7_3" transform="matrix(8.966669,0,0,-8.966938,72.0676,196.31383)"/>
<use data-text="&#x222b;" xlink:href="#font_5_2" transform="matrix(8.966669,0,0,-8.966938,81.79489,184.10909)"/>
<use data-text="C" xlink:href="#font_4_1" transform="matrix(5.97778,0,0,-5.9779589,86.91504,204.53331)"/>
<use data-text="T" xlink:href="#font_9_2" transform="matrix(8.966669,0,0,-8.966938,15.736908,275.38157)"/>
<use data-text="d" xlink:href="#font_2_4" transform="matrix(8.966669,0,0,-8.966938,24.654175,275.38157)"/>
<use data-text="s" xlink:href="#font_2_6" transform="matrix(8.966669,0,0,-8.966938,29.424447,275.38157)"/>
<use data-text="=" xlink:href="#font_7_3" transform="matrix(8.966669,0,0,-8.966938,36.281526,275.38157)"/>
<use data-text="w" xlink:href="#font_1_114" transform="matrix(8.966669,0,0,-8.966938,15.736908,368.09315)"/>
<use data-text="i" xlink:href="#font_1_66" transform="matrix(8.966669,0,0,-8.966938,21.852173,368.09315)"/>
<use data-text="t" xlink:href="#font_1_105" transform="matrix(8.966669,0,0,-8.966938,24.676674,368.09315)"/>
<use data-text="h" xlink:href="#font_1_63" transform="matrix(8.966669,0,0,-8.966938,27.734307,368.09315)"/>
<use data-text="r" xlink:href="#font_9_3" transform="matrix(8.966669,0,0,-8.966938,35.732515,368.09315)"/>
<use data-text="(" xlink:href="#font_7_1" transform="matrix(8.966669,0,0,-8.966938,40.109643,368.09315)"/>
<use data-text="t" xlink:href="#font_2_7" transform="matrix(8.966669,0,0,-8.966938,43.69375,368.09315)"/>
<use data-text=")" xlink:href="#font_7_2" transform="matrix(8.966669,0,0,-8.966938,47.02085,368.09315)"/>
<use data-text="," xlink:href="#font_1_45" transform="matrix(8.966669,0,0,-8.966938,50.604959,368.09315)"/>
<use data-text="a" xlink:href="#font_2_2" transform="matrix(8.966669,0,0,-8.966938,56.72014,368.09315)"/>
<use data-text="&#x2264;" xlink:href="#font_3_2" transform="matrix(8.966669,0,0,-8.966938,64.16235,368.09315)"/>
<use data-text="t" xlink:href="#font_2_7" transform="matrix(8.966669,0,0,-8.966938,73.88965,368.09315)"/>
<use data-text="&#x2264;" xlink:href="#font_3_2" transform="matrix(8.966669,0,0,-8.966938,79.77783,368.09315)"/>
<use data-text="b" xlink:href="#font_2_3" transform="matrix(8.966669,0,0,-8.966938,89.50513,368.09315)"/>
<use data-text=":" xlink:href="#font_1_44" transform="matrix(8.966669,0,0,-8.966938,93.454257,368.09315)"/>
<use data-text="&#x222b;" xlink:href="#font_5_2" transform="matrix(8.966669,0,0,-8.966938,109.63374,355.8884)"/>
<use data-text="C" xlink:href="#font_4_1" transform="matrix(5.97778,0,0,-5.9779589,114.7529,376.31263)"/>
<use data-text="F" xlink:href="#font_9_1" transform="matrix(8.966669,0,0,-8.966938,122.48312,368.09315)"/>
<use data-text="&#x00b7;" xlink:href="#font_3_1" transform="matrix(8.966669,0,0,-8.966938,131.19939,368.09315)"/>
<use data-text="d" xlink:href="#font_2_4" transform="matrix(8.966669,0,0,-8.966938,135.80753,368.09315)"/>
<use data-text="r" xlink:href="#font_9_3" transform="matrix(8.966669,0,0,-8.966938,140.58267,368.09315)"/>
<use data-text="=" xlink:href="#font_7_3" transform="matrix(8.966669,0,0,-8.966938,147.51888,368.09315)"/>
<use data-text="&#x222b;" xlink:href="#font_5_2" transform="matrix(8.966669,0,0,-8.966938,157.24718,355.8884)"/>
<use data-text="b" xlink:href="#font_4_3" transform="matrix(5.97778,0,0,-5.9779589,166.46245,358.35157)"/>
<use data-text="a" xlink:href="#font_4_2" transform="matrix(5.97778,0,0,-5.9779589,162.36634,376.31263)"/>
</svg>
