<svg xmlns="http://www.w3.org/2000/svg" id="prefigure-xyplane-blob-figure" width="320" height="320" viewBox="0 0 320 320">
  <defs>
    <clipPath id="prefigure-xyplane-blob-clipPath-0">
      <rect x="10.0" y="10.0" width="300.0" height="300.0"/>
    </clipPath>
    <clipPath id="prefigure-xyplane-blob-clipPath-1">
      <rect x="10.0" y="10.0" width="300.0" height="300.0"/>
    </clipPath>
    <marker id="prefigure-xyplane-blob-arrow-head-end-2_None_24_60-black" markerWidth="9.0" markerHeight="8.0" markerUnits="userSpaceOnUse" orient="auto-start-reverse" refX="6.5" refY="4.0">
      <path d="M 9.0 4.0L 0.0 8.0L 1.7 5.0L 1.7 3.0L 0.0 0.0Z" fill="black" stroke="none"/>
    </marker>
    <marker id="prefigure-xyplane-blob-arrow-head-end-2_None_24_60-black-outline" markerWidth="13.0" markerHeight="12.0" markerUnits="userSpaceOnUse" orient="auto-start-reverse" refX="8.5" refY="6.0">
      <path d="M 11.8 7.8 L 2.8 11.8 A 2 2 0 0 1 0.0 10.0 L 0.0 2.0 A 2 2 0 0 1 2.8 0.2 L 11.8 4.2 A 2 2 0 0 1 11.8 7.8 Z" fill="white" stroke="none"/>
    </marker>
  </defs>
  <g id="xy-axes" stroke="black" stroke-width="2">
    <line id="prefigure-xyplane-blob-line-0" x1="10.0" y1="272.5" x2="310.0" y2="272.5" stroke="black" stroke-width="2" marker-end="url(#prefigure-xyplane-blob-arrow-head-end-2_None_24_60-black)"/>
    <line id="prefigure-xyplane-blob-line-1" x1="47.5" y1="310.0" x2="47.5" y2="10.0" stroke="black" stroke-width="2" marker-end="url(#prefigure-xyplane-blob-arrow-head-end-2_None_24_60-black)"/>
  </g>
  <g id="prefigure-xyplane-blob-label-0" transform="translate(304.0,266.5) translate(-10.4,-8.2)">
    <g id="prefigure-xyplane-blob-g-0">
      <svg xmlns:xlink="http://www.w3.org/1999/xlink" style="vertical-align: -0.200px" width="10.352px" height="8.200px" role="img" focusable="false" viewBox="0 -442 572 453" x="0.0" y="0.0">
        <defs>
          <path id="prefigure-xyplane-blob-MJX-2-TEX-I-1D465" d="M52 289Q59 331 106 386T222 442Q257 442 286 424T329 379Q371 442 430 442Q467 442 494 420T522 361Q522 332 508 314T481 292T458 288Q439 288 427 299T415 328Q415 374 465 391Q454 404 425 404Q412 404 406 402Q368 386 350 336Q290 115 290 78Q290 50 306 38T341 26Q378 26 414 59T463 140Q466 150 469 151T485 153H489Q504 153 504 145Q504 144 502 134Q486 77 440 33T333 -11Q263 -11 227 52Q186 -10 133 -10H127Q78 -10 57 16T35 71Q35 103 54 123T99 143Q142 143 142 101Q142 81 130 66T107 46T94 41L91 40Q91 39 97 36T113 29T132 26Q168 26 194 71Q203 87 217 139T245 247T261 313Q266 340 266 352Q266 380 251 392T217 404Q177 404 142 372T93 290Q91 281 88 280T72 278H58Q52 284 52 289Z"/>
        </defs>
        <g stroke="currentColor" fill="currentColor" stroke-width="0" transform="scale(1,-1)">
          <g data-mml-node="math">
            <g data-mml-node="mi" data-semantic-type="identifier" data-semantic-role="latinletter" data-semantic-font="italic" data-semantic-annotation="clearspeak:simple" data-semantic-id="0" data-semantic-speech="x">
              <use data-c="1D465" xlink:href="#prefigure-xyplane-blob-MJX-2-TEX-I-1D465"/>
            </g>
          </g>
        </g>
      </svg>
    </g>
  </g>
  <g id="prefigure-xyplane-blob-label-1" transform="translate(53.5,16.0) translate(0.0,-0.0)">
    <g id="prefigure-xyplane-blob-g-1">
      <svg xmlns:xlink="http://www.w3.org/1999/xlink" style="vertical-align: -3.712px" width="8.872px" height="11.712px" role="img" focusable="false" viewBox="0 -442 490 647" x="0.0" y="0.0">
        <defs>
          <path id="prefigure-xyplane-blob-MJX-3-TEX-I-1D466" d="M21 287Q21 301 36 335T84 406T158 442Q199 442 224 419T250 355Q248 336 247 334Q247 331 231 288T198 191T182 105Q182 62 196 45T238 27Q261 27 281 38T312 61T339 94Q339 95 344 114T358 173T377 247Q415 397 419 404Q432 431 462 431Q475 431 483 424T494 412T496 403Q496 390 447 193T391 -23Q363 -106 294 -155T156 -205Q111 -205 77 -183T43 -117Q43 -95 50 -80T69 -58T89 -48T106 -45Q150 -45 150 -87Q150 -107 138 -122T115 -142T102 -147L99 -148Q101 -153 118 -160T152 -167H160Q177 -167 186 -165Q219 -156 247 -127T290 -65T313 -9T321 21L315 17Q309 13 296 6T270 -6Q250 -11 231 -11Q185 -11 150 11T104 82Q103 89 103 113Q103 170 138 262T173 379Q173 380 173 381Q173 390 173 393T169 400T158 404H154Q131 404 112 385T82 344T65 302T57 280Q55 278 41 278H27Q21 284 21 287Z"/>
        </defs>
        <g stroke="currentColor" fill="currentColor" stroke-width="0" transform="scale(1,-1)">
          <g data-mml-node="math">
            <g data-mml-node="mi" data-semantic-type="identifier" data-semantic-role="latinletter" data-semantic-font="italic" data-semantic-annotation="clearspeak:simple" data-semantic-id="0" data-semantic-speech="y">
              <use data-c="1D466" xlink:href="#prefigure-xyplane-blob-MJX-3-TEX-I-1D466"/>
            </g>
          </g>
        </g>
      </svg>
    </g>
  </g>
  <path id="prefigure-xyplane-blob-xy-blob" d="M 271.0 152.5 L 270.7 149.0 L 269.9 145.2 L 268.4 141.3 L 266.5 137.3 L 264.0 133.2 L 261.1 129.1 L 257.8 125.2 L 254.1 121.4 L 250.1 118.0 L 245.8 114.9 L 241.4 112.2 L 236.8 110.0 L 232.1 108.3 L 227.3 107.0 L 222.6 106.2 L 217.9 105.8 L 213.2 105.8 L 208.6 106.0 L 204.1 106.4 L 199.7 107.0 L 195.4 107.6 L 191.2 108.2 L 187.0 108.6 L 182.9 108.9 L 178.7 109.0 L 174.6 108.9 L 170.5 108.6 L 166.3 108.2 L 162.1 107.6 L 157.8 107.0 L 153.4 106.4 L 148.9 106.0 L 144.3 105.8 L 139.6 105.8 L 134.9 106.2 L 130.2 107.0 L 125.4 108.3 L 120.7 110.0 L 116.1 112.2 L 111.7 114.9 L 107.4 118.0 L 103.4 121.4 L 99.7 125.2 L 96.4 129.1 L 93.5 133.2 L 91.0 137.3 L 89.1 141.3 L 87.6 145.2 L 86.8 149.0 L 86.5 152.5 L 86.8 155.8 L 87.6 158.8 L 89.1 161.6 L 91.0 164.1 L 93.5 166.6 L 96.4 168.9 L 99.7 171.2 L 103.4 173.5 L 107.4 175.9 L 111.7 178.4 L 116.1 181.1 L 120.7 183.9 L 125.4 187.0 L 130.2 190.2 L 134.9 193.6 L 139.6 197.0 L 144.3 200.4 L 148.9 203.7 L 153.4 206.9 L 157.8 209.7 L 162.1 212.2 L 166.3 214.3 L 170.5 215.8 L 174.6 216.7 L 178.7 217.0 L 182.9 216.7 L 187.0 215.8 L 191.2 214.3 L 195.4 212.2 L 199.7 209.7 L 204.1 206.9 L 208.6 203.7 L 213.2 200.4 L 217.9 197.0 L 222.6 193.6 L 227.3 190.2 L 232.1 187.0 L 236.8 183.9 L 241.4 181.1 L 245.8 178.4 L 250.1 175.9 L 254.1 173.5 L 257.8 171.2 L 261.1 168.9 L 264.0 166.6 L 266.5 164.1 L 268.4 161.6 L 269.9 158.8 L 270.7 155.8 L 271.0 152.5 Z" stroke="#2b6cb0" stroke-width="2" fill="#9ecfff" clip-path="url(#prefigure-xyplane-blob-clipPath-1)"/>
  <g id="prefigure-xyplane-blob-xy-point">
    <g transform="translate(216.5,171.5) translate(0.0,-0.0)">
      <g id="prefigure-xyplane-blob-g-2">
        <svg xmlns:xlink="http://www.w3.org/1999/xlink" style="vertical-align: -4.528px" width="57.152px" height="18.096px" role="img" focusable="false" viewBox="0 -750 3157.8 1000" x="0.0" y="0.0">
          <defs>
            <path id="prefigure-xyplane-blob-MJX-4-TEX-N-28" d="M94 250Q94 319 104 381T127 488T164 576T202 643T244 695T277 729T302 750H315H319Q333 750 333 741Q333 738 316 720T275 667T226 581T184 443T167 250T184 58T225 -81T274 -167T316 -220T333 -241Q333 -250 318 -250H315H302L274 -226Q180 -141 137 -14T94 250Z"/>
            <path id="prefigure-xyplane-blob-MJX-4-TEX-I-1D465" d="M52 289Q59 331 106 386T222 442Q257 442 286 424T329 379Q371 442 430 442Q467 442 494 420T522 361Q522 332 508 314T481 292T458 288Q439 288 427 299T415 328Q415 374 465 391Q454 404 425 404Q412 404 406 402Q368 386 350 336Q290 115 290 78Q290 50 306 38T341 26Q378 26 414 59T463 140Q466 150 469 151T485 153H489Q504 153 504 145Q504 144 502 134Q486 77 440 33T333 -11Q263 -11 227 52Q186 -10 133 -10H127Q78 -10 57 16T35 71Q35 103 54 123T99 143Q142 143 142 101Q142 81 130 66T107 46T94 41L91 40Q91 39 97 36T113 29T132 26Q168 26 194 71Q203 87 217 139T245 247T261 313Q266 340 266 352Q266 380 251 392T217 404Q177 404 142 372T93 290Q91 281 88 280T72 278H58Q52 284 52 289Z"/>
            <path id="prefigure-xyplane-blob-MJX-4-TEX-N-31" d="M213 578L200 573Q186 568 160 563T102 556H83V602H102Q149 604 189 617T245 641T273 663Q275 666 285 666Q294 666 302 660V361L303 61Q310 54 315 52T339 48T401 46H427V0H416Q395 3 257 3Q121 3 100 0H88V46H114Q136 46 152 46T177 47T193 50T201 52T207 57T213 61V578Z"/>
            <path id="prefigure-xyplane-blob-MJX-4-TEX-N-2C" d="M78 35T78 60T94 103T137 121Q165 121 187 96T210 8Q210 -27 201 -60T180 -117T154 -158T130 -185T117 -194Q113 -194 104 -185T95 -172Q95 -168 106 -156T131 -126T157 -76T173 -3V9L172 8Q170 7 167 6T161 3T152 1T140 0Q113 0 96 17Z"/>
            <path id="prefigure-xyplane-blob-MJX-4-TEX-I-1D466" d="M21 287Q21 301 36 335T84 406T158 442Q199 442 224 419T250 355Q248 336 247 334Q247 331 231 288T198 191T182 105Q182 62 196 45T238 27Q261 27 281 38T312 61T339 94Q339 95 344 114T358 173T377 247Q415 397 419 404Q432 431 462 431Q475 431 483 424T494 412T496 403Q496 390 447 193T391 -23Q363 -106 294 -155T156 -205Q111 -205 77 -183T43 -117Q43 -95 50 -80T69 -58T89 -48T106 -45Q150 -45 150 -87Q150 -107 138 -122T115 -142T102 -147L99 -148Q101 -153 118 -160T152 -167H160Q177 -167 186 -165Q219 -156 247 -127T290 -65T313 -9T321 21L315 17Q309 13 296 6T270 -6Q250 -11 231 -11Q185 -11 150 11T104 82Q103 89 103 113Q103 170 138 262T173 379Q173 380 173 381Q173 390 173 393T169 400T158 404H154Q131 404 112 385T82 344T65 302T57 280Q55 278 41 278H27Q21 284 21 287Z"/>
            <path id="prefigure-xyplane-blob-MJX-4-TEX-N-29" d="M60 749L64 750Q69 750 74 750H86L114 726Q208 641 251 514T294 250Q294 182 284 119T261 12T224 -76T186 -143T145 -194T113 -227T90 -246Q87 -249 86 -250H74Q66 -250 63 -250T58 -247T55 -238Q56 -237 66 -225Q221 -64 221 250T66 725Q56 737 55 738Q55 746 60 749Z"/>
          </defs>
          <g stroke="currentColor" fill="currentColor" stroke-width="0" transform="scale(1,-1)">
            <g data-mml-node="math" data-semantic-type="fenced" data-semantic-role="leftright" data-semantic-id="10" data-semantic-children="9" data-semantic-content="0,8" data-semantic-speech="left parenthesis x 1 comma y 1 right parenthesis">
              <g data-mml-node="mo" data-semantic-type="fence" data-semantic-role="open" data-semantic-id="0" data-semantic-parent="10" data-semantic-operator="fenced" data-semantic-speech="left parenthesis">
                <use data-c="28" xlink:href="#prefigure-xyplane-blob-MJX-4-TEX-N-28"/>
              </g>
              <g data-mml-node="mrow" data-semantic-type="punctuated" data-semantic-role="sequence" data-semantic-id="9" data-semantic-children="3,4,7" data-semantic-content="4" data-semantic-parent="10" data-semantic-speech="x 1 comma y 1" transform="translate(389,0)">
                <g data-mml-node="msub" data-semantic-type="subscript" data-semantic-role="latinletter" data-semantic-id="3" data-semantic-children="1,2" data-semantic-parent="9" data-semantic-speech="x 1">
                  <g data-mml-node="mi" data-semantic-type="identifier" data-semantic-role="latinletter" data-semantic-font="italic" data-semantic-annotation="clearspeak:simple" data-semantic-id="1" data-semantic-parent="3" data-semantic-speech="x" data-semantic-prefix="Base">
                    <use data-c="1D465" xlink:href="#prefigure-xyplane-blob-MJX-4-TEX-I-1D465"/>
                  </g>
                  <g data-mml-node="mn" transform="translate(605,-150) scale(0.707)" data-semantic-type="number" data-semantic-role="integer" data-semantic-font="normal" data-semantic-annotation="clearspeak:simple" data-semantic-id="2" data-semantic-parent="3" data-semantic-speech="1" data-semantic-prefix="Subscript">
                    <use data-c="31" xlink:href="#prefigure-xyplane-blob-MJX-4-TEX-N-31"/>
                  </g>
                </g>
                <g data-mml-node="mo" data-semantic-type="punctuation" data-semantic-role="comma" data-semantic-id="4" data-semantic-parent="9" data-semantic-operator="punctuated" data-semantic-speech="comma" transform="translate(1008.6,0)">
                  <use data-c="2C" xlink:href="#prefigure-xyplane-blob-MJX-4-TEX-N-2C"/>
                </g>
                <g data-mml-node="msub" data-semantic-type="subscript" data-semantic-role="latinletter" data-semantic-id="7" data-semantic-children="5,6" data-semantic-parent="9" data-semantic-speech="y 1" transform="translate(1453.2,0)">
                  <g data-mml-node="mi" data-semantic-type="identifier" data-semantic-role="latinletter" data-semantic-font="italic" data-semantic-annotation="clearspeak:simple" data-semantic-id="5" data-semantic-parent="7" data-semantic-speech="y" data-semantic-prefix="Base">
                    <use data-c="1D466" xlink:href="#prefigure-xyplane-blob-MJX-4-TEX-I-1D466"/>
                  </g>
                  <g data-mml-node="mn" transform="translate(523,-150) scale(0.707)" data-semantic-type="number" data-semantic-role="integer" data-semantic-font="normal" data-semantic-annotation="clearspeak:simple" data-semantic-id="6" data-semantic-parent="7" data-semantic-speech="1" data-semantic-prefix="Subscript">
                    <use data-c="31" xlink:href="#prefigure-xyplane-blob-MJX-4-TEX-N-31"/>
                  </g>
                </g>
              </g>
              <g data-mml-node="mo" data-semantic-type="fence" data-semantic-role="close" data-semantic-id="8" data-semantic-parent="10" data-semantic-operator="fenced" data-semantic-speech="right parenthesis" transform="translate(2768.8,0)">
                <use data-c="29" xlink:href="#prefigure-xyplane-blob-MJX-4-TEX-N-29"/>
              </g>
            </g>
          </g>
        </svg>
      </g>
    </g>
    <circle cx="212.5" cy="167.5" r="3" stroke="black" stroke-width="2" fill="black"/>
  </g>
  <g id="prefigure-xyplane-blob-xy-R" transform="translate(148.8,126.2) translate(-6.9,-6.4)">
    <g id="prefigure-xyplane-blob-g-3">
      <svg xmlns:xlink="http://www.w3.org/1999/xlink" style="vertical-align: -0.384px" width="13.736px" height="12.744px" role="img" focusable="false" viewBox="0 -683 759 704" x="0.0" y="0.0">
        <defs>
          <path id="prefigure-xyplane-blob-MJX-5-TEX-I-1D445" d="M230 637Q203 637 198 638T193 649Q193 676 204 682Q206 683 378 683Q550 682 564 680Q620 672 658 652T712 606T733 563T739 529Q739 484 710 445T643 385T576 351T538 338L545 333Q612 295 612 223Q612 212 607 162T602 80V71Q602 53 603 43T614 25T640 16Q668 16 686 38T712 85Q717 99 720 102T735 105Q755 105 755 93Q755 75 731 36Q693 -21 641 -21H632Q571 -21 531 4T487 82Q487 109 502 166T517 239Q517 290 474 313Q459 320 449 321T378 323H309L277 193Q244 61 244 59Q244 55 245 54T252 50T269 48T302 46H333Q339 38 339 37T336 19Q332 6 326 0H311Q275 2 180 2Q146 2 117 2T71 2T50 1Q33 1 33 10Q33 12 36 24Q41 43 46 45Q50 46 61 46H67Q94 46 127 49Q141 52 146 61Q149 65 218 339T287 628Q287 635 230 637ZM630 554Q630 586 609 608T523 636Q521 636 500 636T462 637H440Q393 637 386 627Q385 624 352 494T319 361Q319 360 388 360Q466 361 492 367Q556 377 592 426Q608 449 619 486T630 554Z"/>
        </defs>
        <g stroke="currentColor" fill="currentColor" stroke-width="0" transform="scale(1,-1)">
          <g data-mml-node="math">
            <g data-mml-node="mi" data-semantic-type="identifier" data-semantic-role="latinletter" data-semantic-font="italic" data-semantic-annotation="clearspeak:simple" data-semantic-id="0" data-semantic-speech="upper R">
              <use data-c="1D445" xlink:href="#prefigure-xyplane-blob-MJX-5-TEX-I-1D445"/>
            </g>
          </g>
        </g>
      </svg>
    </g>
  </g>
</svg>
