<svg xmlns="http://www.w3.org/2000/svg" id="prefigure-loop-split-figure" width="320" height="280" viewBox="0 0 320 280">
  <defs>
    <clipPath id="prefigure-loop-split-clipPath-0">
      <rect x="10.0" y="10.0" width="300.0" height="260.0"/>
    </clipPath>
    <clipPath id="prefigure-loop-split-clipPath-1">
      <rect x="10.0" y="10.0" width="300.0" height="260.0"/>
    </clipPath>
    <marker id="prefigure-loop-split-arrow-head-end-3_None_24_60-h0072B2" markerWidth="13.5" markerHeight="12.0" markerUnits="userSpaceOnUse" orient="auto-start-reverse" refX="9.8" refY="6.0">
      <path d="M 13.5 6.0L 0.0 12.0L 2.6 7.5L 2.6 4.5L 0.0 0.0Z" fill="#0072B2" stroke="none"/>
    </marker>
    <marker id="prefigure-loop-split-arrow-head-end-3_None_24_60-h0072B2-outline" markerWidth="17.5" markerHeight="16.0" markerUnits="userSpaceOnUse" orient="auto-start-reverse" refX="11.8" refY="8.0">
      <path d="M 16.3 9.8 L 2.8 15.8 A 2 2 0 0 1 0.0 14.0 L 0.0 2.0 A 2 2 0 0 1 2.8 0.2 L 16.3 6.2 A 2 2 0 0 1 16.3 9.8 Z" fill="white" stroke="none"/>
    </marker>
    <marker id="prefigure-loop-split-arrow-head-end-3_None_24_60-hCC79A7" markerWidth="13.5" markerHeight="12.0" markerUnits="userSpaceOnUse" orient="auto-start-reverse" refX="9.8" refY="6.0">
      <path d="M 13.5 6.0L 0.0 12.0L 2.6 7.5L 2.6 4.5L 0.0 0.0Z" fill="#CC79A7" stroke="none"/>
    </marker>
    <marker id="prefigure-loop-split-arrow-head-end-3_None_24_60-hCC79A7-outline" markerWidth="17.5" markerHeight="16.0" markerUnits="userSpaceOnUse" orient="auto-start-reverse" refX="11.8" refY="8.0">
      <path d="M 16.3 9.8 L 2.8 15.8 A 2 2 0 0 1 0.0 14.0 L 0.0 2.0 A 2 2 0 0 1 2.8 0.2 L 16.3 6.2 A 2 2 0 0 1 16.3 9.8 Z" fill="white" stroke="none"/>
    </marker>
  </defs>
  <path id="prefigure-loop-split-ls-c1" d="M 256.8 140.0 L 256.7 137.3 L 256.6 134.6 L 256.3 131.9 L 256.0 129.2 L 255.6 126.6 L 255.1 123.9 L 254.4 121.3 L 253.7 118.7 L 252.9 116.1 L 252.0 113.6 L 251.1 111.1 L 250.0 108.6 L 248.8 106.2 L 247.6 103.9 L 246.2 101.5 L 244.8 99.3 L 243.3 97.1 L 241.7 94.9 L 240.0 92.9 L 238.3 90.8 L 236.5 88.9 L 234.6 87.0 L 232.6 85.2 L 230.5 83.5 L 228.4 81.8 L 226.2 80.2 L 224.0 78.7 L 221.7 77.3 L 219.3 75.9 L 216.9 74.7 L 214.4 73.5 L 211.9 72.4 L 209.3 71.4 L 206.6 70.4 L 203.9 69.6 L 201.2 68.8 L 198.4 68.2 L 195.6 67.6 L 192.8 67.1 L 189.9 66.6 L 187.0 66.3 L 184.1 66.0 L 181.1 65.9 L 178.1 65.8 L 175.1 65.8 L 172.1 65.8 L 169.1 66.0 L 166.1 66.2 L 163.0 66.5 L 160.0 66.9 L 157.0 67.3 L 153.9 67.8 L 150.9 68.4 L 147.9 69.1 L 144.9 69.8 L 141.9 70.6 L 138.9 71.4 L 135.9 72.3 L 133.0 73.3 L 130.1 74.3 L 127.2 75.3 L 124.4 76.5 L 121.6 77.6 L 118.8 78.8 L 116.1 80.1 L 113.4 81.4 L 110.7 82.8 L 108.1 84.1 L 105.6 85.6 L 103.1 87.0 L 100.7 88.5 L 98.3 90.0 L 96.0 91.6 L 93.8 93.2 L 91.6 94.8 L 89.5 96.4 L 87.4 98.1 L 85.4 99.8 L 83.5 101.5 L 81.7 103.2 L 80.0 104.9 L 78.3 106.7 L 76.7 108.5 L 75.2 110.3 L 73.8 112.1 L 72.4 113.9 L 71.2 115.7 L 70.0 117.5 L 68.9 119.4 L 68.0 121.2 L 67.1 123.1 L 66.3 124.9 L 65.6 126.8 L 64.9 128.7 L 64.4 130.6 L 64.0 132.5 L 63.7 134.3 L 63.4 136.2 L 63.3 138.1 L 63.2 140.0" stroke="#0072B2" stroke-width="3" fill="none" clip-path="url(#prefigure-loop-split-clipPath-1)" marker-end="url(#prefigure-loop-split-arrow-head-end-3_None_24_60-h0072B2)"/>
  <path id="prefigure-loop-split-ls-c2" d="M 63.2 140.0 L 63.3 142.6 L 63.4 145.3 L 63.7 147.9 L 64.0 150.5 L 64.4 153.1 L 64.9 155.7 L 65.6 158.3 L 66.3 160.8 L 67.1 163.3 L 68.0 165.8 L 68.9 168.2 L 70.0 170.6 L 71.2 173.0 L 72.4 175.3 L 73.8 177.6 L 75.2 179.8 L 76.7 182.0 L 78.3 184.1 L 80.0 186.1 L 81.7 188.1 L 83.5 190.1 L 85.4 191.9 L 87.4 193.7 L 89.5 195.5 L 91.6 197.1 L 93.8 198.7 L 96.0 200.2 L 98.3 201.7 L 100.7 203.0 L 103.1 204.3 L 105.6 205.5 L 108.1 206.6 L 110.7 207.7 L 113.4 208.7 L 116.1 209.5 L 118.8 210.3 L 121.6 211.1 L 124.4 211.7 L 127.2 212.3 L 130.1 212.7 L 133.0 213.1 L 135.9 213.4 L 138.9 213.7 L 141.9 213.8 L 144.9 213.9 L 147.9 213.9 L 150.9 213.8 L 153.9 213.7 L 157.0 213.4 L 160.0 213.1 L 163.0 212.7 L 166.1 212.3 L 169.1 211.8 L 172.1 211.2 L 175.1 210.6 L 178.1 209.8 L 181.1 209.1 L 184.1 208.2 L 187.0 207.3 L 189.9 206.4 L 192.8 205.3 L 195.6 204.3 L 198.4 203.2 L 201.2 202.0 L 203.9 200.8 L 206.6 199.5 L 209.3 198.2 L 211.9 196.8 L 214.4 195.4 L 216.9 194.0 L 219.3 192.5 L 221.7 191.0 L 224.0 189.5 L 226.2 187.9 L 228.4 186.3 L 230.5 184.7 L 232.6 183.0 L 234.6 181.3 L 236.5 179.6 L 238.3 177.8 L 240.0 176.1 L 241.7 174.3 L 243.3 172.5 L 244.8 170.7 L 246.2 168.8 L 247.6 167.0 L 248.8 165.1 L 250.0 163.2 L 251.1 161.3 L 252.0 159.4 L 252.9 157.5 L 253.7 155.6 L 254.4 153.6 L 255.1 151.7 L 255.6 149.8 L 256.0 147.8 L 256.3 145.9 L 256.6 143.9 L 256.7 142.0 L 256.8 140.0" stroke="#CC79A7" stroke-width="3" fill="none" clip-path="url(#prefigure-loop-split-clipPath-1)" marker-end="url(#prefigure-loop-split-arrow-head-end-3_None_24_60-hCC79A7)"/>
  <g id="prefigure-loop-split-ls-A">
    <g transform="translate(264.8,140.0) translate(0.0,-6.5)">
      <g id="prefigure-loop-split-g-0">
        <svg xmlns:xlink="http://www.w3.org/1999/xlink" style="vertical-align: 0.000px" width="13.576px" height="12.960px" role="img" focusable="false" viewBox="0 -716 750 716" x="0.0" y="0.0">
          <defs>
            <path id="prefigure-loop-split-MJX-2-TEX-I-1D434" d="M208 74Q208 50 254 46Q272 46 272 35Q272 34 270 22Q267 8 264 4T251 0Q249 0 239 0T205 1T141 2Q70 2 50 0H42Q35 7 35 11Q37 38 48 46H62Q132 49 164 96Q170 102 345 401T523 704Q530 716 547 716H555H572Q578 707 578 706L606 383Q634 60 636 57Q641 46 701 46Q726 46 726 36Q726 34 723 22Q720 7 718 4T704 0Q701 0 690 0T651 1T578 2Q484 2 455 0H443Q437 6 437 9T439 27Q443 40 445 43L449 46H469Q523 49 533 63L521 213H283L249 155Q208 86 208 74ZM516 260Q516 271 504 416T490 562L463 519Q447 492 400 412L310 260L413 259Q516 259 516 260Z"/>
          </defs>
          <g stroke="currentColor" fill="currentColor" stroke-width="0" transform="scale(1,-1)">
            <g data-mml-node="math">
              <g data-mml-node="mi" data-semantic-type="identifier" data-semantic-role="latinletter" data-semantic-font="italic" data-semantic-annotation="clearspeak:simple" data-semantic-id="0" data-semantic-speech="upper A">
                <use data-c="1D434" xlink:href="#prefigure-loop-split-MJX-2-TEX-I-1D434"/>
              </g>
            </g>
          </g>
        </svg>
      </g>
    </g>
    <circle cx="256.8" cy="140.0" r="4" stroke="black" stroke-width="2" fill="black"/>
  </g>
  <g id="prefigure-loop-split-ls-B">
    <g transform="translate(55.2,140.0) translate(-13.7,-6.2)">
      <g id="prefigure-loop-split-g-1">
        <svg xmlns:xlink="http://www.w3.org/1999/xlink" style="vertical-align: 0.000px" width="13.736px" height="12.360px" role="img" focusable="false" viewBox="0 -683 759 683" x="0.0" y="0.0">
          <defs>
            <path id="prefigure-loop-split-MJX-3-TEX-I-1D435" d="M231 637Q204 637 199 638T194 649Q194 676 205 682Q206 683 335 683Q594 683 608 681Q671 671 713 636T756 544Q756 480 698 429T565 360L555 357Q619 348 660 311T702 219Q702 146 630 78T453 1Q446 0 242 0Q42 0 39 2Q35 5 35 10Q35 17 37 24Q42 43 47 45Q51 46 62 46H68Q95 46 128 49Q142 52 147 61Q150 65 219 339T288 628Q288 635 231 637ZM649 544Q649 574 634 600T585 634Q578 636 493 637Q473 637 451 637T416 636H403Q388 635 384 626Q382 622 352 506Q352 503 351 500L320 374H401Q482 374 494 376Q554 386 601 434T649 544ZM595 229Q595 273 572 302T512 336Q506 337 429 337Q311 337 310 336Q310 334 293 263T258 122L240 52Q240 48 252 48T333 46Q422 46 429 47Q491 54 543 105T595 229Z"/>
          </defs>
          <g stroke="currentColor" fill="currentColor" stroke-width="0" transform="scale(1,-1)">
            <g data-mml-node="math">
              <g data-mml-node="mi" data-semantic-type="identifier" data-semantic-role="latinletter" data-semantic-font="italic" data-semantic-annotation="clearspeak:simple" data-semantic-id="0" data-semantic-speech="upper B">
                <use data-c="1D435" xlink:href="#prefigure-loop-split-MJX-3-TEX-I-1D435"/>
              </g>
            </g>
          </g>
        </svg>
      </g>
    </g>
    <circle cx="63.2" cy="140.0" r="4" stroke="black" stroke-width="2" fill="black"/>
  </g>
  <g id="prefigure-loop-split-ls-c1-label" transform="translate(116.5,52.0) translate(-10.4,-15.5)">
    <g id="prefigure-loop-split-g-2">
      <svg xmlns:xlink="http://www.w3.org/1999/xlink" style="vertical-align: -2.712px; color:#0072B2" width="20.840px" height="15.472px" role="img" focusable="false" viewBox="0 -705 1151.6 855" x="0.0" y="0.0">
        <defs>
          <path id="prefigure-loop-split-MJX-4-TEX-I-1D436" d="M50 252Q50 367 117 473T286 641T490 704Q580 704 633 653Q642 643 648 636T656 626L657 623Q660 623 684 649Q691 655 699 663T715 679T725 690L740 705H746Q760 705 760 698Q760 694 728 561Q692 422 692 421Q690 416 687 415T669 413H653Q647 419 647 422Q647 423 648 429T650 449T651 481Q651 552 619 605T510 659Q484 659 454 652T382 628T299 572T226 479Q194 422 175 346T156 222Q156 108 232 58Q280 24 350 24Q441 24 512 92T606 240Q610 253 612 255T628 257Q648 257 648 248Q648 243 647 239Q618 132 523 55T319 -22Q206 -22 128 53T50 252Z"/>
          <path id="prefigure-loop-split-MJX-4-TEX-N-31" d="M213 578L200 573Q186 568 160 563T102 556H83V602H102Q149 604 189 617T245 641T273 663Q275 666 285 666Q294 666 302 660V361L303 61Q310 54 315 52T339 48T401 46H427V0H416Q395 3 257 3Q121 3 100 0H88V46H114Q136 46 152 46T177 47T193 50T201 52T207 57T213 61V578Z"/>
        </defs>
        <g stroke="currentColor" fill="currentColor" stroke-width="0" transform="scale(1,-1)">
          <g data-mml-node="math">
            <g data-mml-node="msub" data-semantic-type="subscript" data-semantic-role="latinletter" data-semantic-id="2" data-semantic-children="0,1" data-semantic-speech="upper C 1">
              <g data-mml-node="mi" data-semantic-type="identifier" data-semantic-role="latinletter" data-semantic-font="italic" data-semantic-annotation="clearspeak:simple" data-semantic-id="0" data-semantic-parent="2" data-semantic-speech="upper C" data-semantic-prefix="Base">
                <use data-c="1D436" xlink:href="#prefigure-loop-split-MJX-4-TEX-I-1D436"/>
              </g>
              <g data-mml-node="mn" transform="translate(748,-150) scale(0.707)" data-semantic-type="number" data-semantic-role="integer" data-semantic-font="normal" data-semantic-annotation="clearspeak:simple" data-semantic-id="1" data-semantic-parent="2" data-semantic-speech="1" data-semantic-prefix="Subscript">
                <use data-c="31" xlink:href="#prefigure-loop-split-MJX-4-TEX-N-31"/>
              </g>
            </g>
          </g>
        </g>
      </svg>
    </g>
  </g>
  <g id="prefigure-loop-split-ls-c2-label" transform="translate(248.7,200.9) translate(0.0,-0.0)">
    <g id="prefigure-loop-split-g-3">
      <svg xmlns:xlink="http://www.w3.org/1999/xlink" style="vertical-align: -2.712px; color:#CC79A7" width="20.840px" height="15.472px" role="img" focusable="false" viewBox="0 -705 1151.6 855" x="0.0" y="0.0">
        <defs>
          <path id="prefigure-loop-split-MJX-5-TEX-I-1D436" d="M50 252Q50 367 117 473T286 641T490 704Q580 704 633 653Q642 643 648 636T656 626L657 623Q660 623 684 649Q691 655 699 663T715 679T725 690L740 705H746Q760 705 760 698Q760 694 728 561Q692 422 692 421Q690 416 687 415T669 413H653Q647 419 647 422Q647 423 648 429T650 449T651 481Q651 552 619 605T510 659Q484 659 454 652T382 628T299 572T226 479Q194 422 175 346T156 222Q156 108 232 58Q280 24 350 24Q441 24 512 92T606 240Q610 253 612 255T628 257Q648 257 648 248Q648 243 647 239Q618 132 523 55T319 -22Q206 -22 128 53T50 252Z"/>
          <path id="prefigure-loop-split-MJX-5-TEX-N-32" d="M109 429Q82 429 66 447T50 491Q50 562 103 614T235 666Q326 666 387 610T449 465Q449 422 429 383T381 315T301 241Q265 210 201 149L142 93L218 92Q375 92 385 97Q392 99 409 186V189H449V186Q448 183 436 95T421 3V0H50V19V31Q50 38 56 46T86 81Q115 113 136 137Q145 147 170 174T204 211T233 244T261 278T284 308T305 340T320 369T333 401T340 431T343 464Q343 527 309 573T212 619Q179 619 154 602T119 569T109 550Q109 549 114 549Q132 549 151 535T170 489Q170 464 154 447T109 429Z"/>
        </defs>
        <g stroke="currentColor" fill="currentColor" stroke-width="0" transform="scale(1,-1)">
          <g data-mml-node="math">
            <g data-mml-node="msub" data-semantic-type="subscript" data-semantic-role="latinletter" data-semantic-id="2" data-semantic-children="0,1" data-semantic-speech="upper C 2">
              <g data-mml-node="mi" data-semantic-type="identifier" data-semantic-role="latinletter" data-semantic-font="italic" data-semantic-annotation="clearspeak:simple" data-semantic-id="0" data-semantic-parent="2" data-semantic-speech="upper C" data-semantic-prefix="Base">
                <use data-c="1D436" xlink:href="#prefigure-loop-split-MJX-5-TEX-I-1D436"/>
              </g>
              <g data-mml-node="mn" transform="translate(748,-150) scale(0.707)" data-semantic-type="number" data-semantic-role="integer" data-semantic-font="normal" data-semantic-annotation="clearspeak:simple" data-semantic-id="1" data-semantic-parent="2" data-semantic-speech="2" data-semantic-prefix="Subscript">
                <use data-c="32" xlink:href="#prefigure-loop-split-MJX-5-TEX-N-32"/>
              </g>
            </g>
          </g>
        </g>
      </svg>
    </g>
  </g>
  <g id="prefigure-loop-split-ls-eq" transform="translate(160.0,244.2) translate(-49.8,-0.0)">
    <g id="prefigure-loop-split-g-4">
      <svg xmlns:xlink="http://www.w3.org/1999/xlink" style="vertical-align: -2.712px" width="99.696px" height="15.472px" role="img" focusable="false" viewBox="0 -705 5508.1 855" x="0.0" y="0.0">
        <defs>
          <path id="prefigure-loop-split-MJX-6-TEX-I-1D436" d="M50 252Q50 367 117 473T286 641T490 704Q580 704 633 653Q642 643 648 636T656 626L657 623Q660 623 684 649Q691 655 699 663T715 679T725 690L740 705H746Q760 705 760 698Q760 694 728 561Q692 422 692 421Q690 416 687 415T669 413H653Q647 419 647 422Q647 423 648 429T650 449T651 481Q651 552 619 605T510 659Q484 659 454 652T382 628T299 572T226 479Q194 422 175 346T156 222Q156 108 232 58Q280 24 350 24Q441 24 512 92T606 240Q610 253 612 255T628 257Q648 257 648 248Q648 243 647 239Q618 132 523 55T319 -22Q206 -22 128 53T50 252Z"/>
          <path id="prefigure-loop-split-MJX-6-TEX-N-3D" d="M56 347Q56 360 70 367H707Q722 359 722 347Q722 336 708 328L390 327H72Q56 332 56 347ZM56 153Q56 168 72 173H708Q722 163 722 153Q722 140 707 133H70Q56 140 56 153Z"/>
          <path id="prefigure-loop-split-MJX-6-TEX-N-31" d="M213 578L200 573Q186 568 160 563T102 556H83V602H102Q149 604 189 617T245 641T273 663Q275 666 285 666Q294 666 302 660V361L303 61Q310 54 315 52T339 48T401 46H427V0H416Q395 3 257 3Q121 3 100 0H88V46H114Q136 46 152 46T177 47T193 50T201 52T207 57T213 61V578Z"/>
          <path id="prefigure-loop-split-MJX-6-TEX-N-222A" d="M591 598H592Q604 598 611 583V376Q611 345 611 296Q610 162 606 148Q605 146 605 145Q586 68 507 23T333 -22Q268 -22 209 -1T106 66T56 173Q55 180 55 384L56 585Q66 598 75 598Q85 598 95 585V378L96 172L98 162Q112 95 181 57T332 18Q415 18 487 58T570 175Q571 180 571 383V583Q579 598 591 598Z"/>
          <path id="prefigure-loop-split-MJX-6-TEX-N-32" d="M109 429Q82 429 66 447T50 491Q50 562 103 614T235 666Q326 666 387 610T449 465Q449 422 429 383T381 315T301 241Q265 210 201 149L142 93L218 92Q375 92 385 97Q392 99 409 186V189H449V186Q448 183 436 95T421 3V0H50V19V31Q50 38 56 46T86 81Q115 113 136 137Q145 147 170 174T204 211T233 244T261 278T284 308T305 340T320 369T333 401T340 431T343 464Q343 527 309 573T212 619Q179 619 154 602T119 569T109 550Q109 549 114 549Q132 549 151 535T170 489Q170 464 154 447T109 429Z"/>
        </defs>
        <g stroke="currentColor" fill="currentColor" stroke-width="0" transform="scale(1,-1)">
          <g data-mml-node="math" data-semantic-type="relseq" data-semantic-role="equality" data-semantic-id="10" data-semantic-children="0,9" data-semantic-content="1" data-semantic-speech="upper C equals upper C 1 union upper C 2">
            <g data-mml-node="mi" data-semantic-type="identifier" data-semantic-role="latinletter" data-semantic-font="italic" data-semantic-annotation="clearspeak:simple" data-semantic-id="0" data-semantic-parent="10" data-semantic-speech="upper C">
              <use data-c="1D436" xlink:href="#prefigure-loop-split-MJX-6-TEX-I-1D436"/>
            </g>
            <g data-mml-node="mo" data-semantic-type="relation" data-semantic-role="equality" data-semantic-id="1" data-semantic-parent="10" data-semantic-operator="relseq,=" data-semantic-speech="equals" transform="translate(1037.8,0)">
              <use data-c="3D" xlink:href="#prefigure-loop-split-MJX-6-TEX-N-3D"/>
            </g>
            <g data-mml-node="mrow" data-semantic-type="infixop" data-semantic-role="addition" data-semantic-id="9" data-semantic-children="4,8" data-semantic-content="5" data-semantic-parent="10" data-semantic-speech="upper C 1 union upper C 2" transform="translate(2093.6,0)">
              <g data-mml-node="msub" data-semantic-type="subscript" data-semantic-role="latinletter" data-semantic-id="4" data-semantic-children="2,3" data-semantic-parent="9" data-semantic-speech="upper C 1">
                <g data-mml-node="mi" data-semantic-type="identifier" data-semantic-role="latinletter" data-semantic-font="italic" data-semantic-annotation="clearspeak:simple" data-semantic-id="2" data-semantic-parent="4" data-semantic-speech="upper C" data-semantic-prefix="Base">
                  <use data-c="1D436" xlink:href="#prefigure-loop-split-MJX-6-TEX-I-1D436"/>
                </g>
                <g data-mml-node="mn" transform="translate(748,-150) scale(0.707)" data-semantic-type="number" data-semantic-role="integer" data-semantic-font="normal" data-semantic-annotation="clearspeak:simple" data-semantic-id="3" data-semantic-parent="4" data-semantic-speech="1" data-semantic-prefix="Subscript">
                  <use data-c="31" xlink:href="#prefigure-loop-split-MJX-6-TEX-N-31"/>
                </g>
              </g>
              <g data-mml-node="mo" data-semantic-type="operator" data-semantic-role="addition" data-semantic-id="5" data-semantic-parent="9" data-semantic-operator="infixop,∪" data-semantic-speech="union" transform="translate(1373.8,0)">
                <use data-c="222A" xlink:href="#prefigure-loop-split-MJX-6-TEX-N-222A"/>
              </g>
              <g data-mml-node="msub" data-semantic-type="subscript" data-semantic-role="latinletter" data-semantic-id="8" data-semantic-children="6,7" data-semantic-parent="9" data-semantic-speech="upper C 2" transform="translate(2263,0)">
                <g data-mml-node="mi" data-semantic-type="identifier" data-semantic-role="latinletter" data-semantic-font="italic" data-semantic-annotation="clearspeak:simple" data-semantic-id="6" data-semantic-parent="8" data-semantic-speech="upper C" data-semantic-prefix="Base">
                  <use data-c="1D436" xlink:href="#prefigure-loop-split-MJX-6-TEX-I-1D436"/>
                </g>
                <g data-mml-node="mn" transform="translate(748,-150) scale(0.707)" data-semantic-type="number" data-semantic-role="integer" data-semantic-font="normal" data-semantic-annotation="clearspeak:simple" data-semantic-id="7" data-semantic-parent="8" data-semantic-speech="2" data-semantic-prefix="Subscript">
                  <use data-c="32" xlink:href="#prefigure-loop-split-MJX-6-TEX-N-32"/>
                </g>
              </g>
            </g>
          </g>
        </g>
      </svg>
    </g>
  </g>
</svg>
